<?xml version="1.0" standalone="no"?>
<!DOCTYPE svg PUBLIC "-//W3C//DTD SVG 1.1//EN" "http://www.w3.org/Graphics/SVG/1.1/DTD/svg11.dtd" >
<!--
2013-9-30: Created.
-->
<svg>
<metadata>
Created by iconfont
</metadata>
<defs>

<font id="iconfont" horiz-adv-x="1024" >
  <font-face
    font-family="iconfont"
    font-weight="500"
    font-stretch="normal"
    units-per-em="1024"
    ascent="896"
    descent="-128"
  />
    <missing-glyph />
    
    <glyph glyph-name="x" unicode="x" horiz-adv-x="1001"
d="M281 543q-27 -1 -53 -1h-83q-18 0 -36.5 -6t-32.5 -18.5t-23 -32t-9 -45.5v-76h912v41q0 16 -0.5 30t-0.5 18q0 13 -5 29t-17 29.5t-31.5 22.5t-49.5 9h-133v-97h-438v97zM955 310v-52q0 -23 0.5 -52t0.5 -58t-10.5 -47.5t-26 -30t-33 -16t-31.5 -4.5q-14 -1 -29.5 -0.5
t-29.5 0.5h-32l-45 128h-439l-44 -128h-29h-34q-20 0 -45 1q-25 0 -41 9.5t-25.5 23t-13.5 29.5t-4 30v167h911zM163 247q-12 0 -21 -8.5t-9 -21.5t9 -21.5t21 -8.5q13 0 22 8.5t9 21.5t-9 21.5t-22 8.5zM316 123q-8 -26 -14 -48q-5 -19 -10.5 -37t-7.5 -25t-3 -15t1 -14.5
t9.5 -10.5t21.5 -4h37h67h81h80h64h36q23 0 34 12t2 38q-5 13 -9.5 30.5t-9.5 34.5q-5 19 -11 39h-368zM336 498v228q0 11 2.5 23t10 21.5t20.5 15.5t34 6h188q31 0 51.5 -14.5t20.5 -52.5v-227h-327z" />
    

    
    <glyph glyph-name="shezhi" unicode="&#58885;" d="M896.6978 400.0122l-70.2323 15.5984c-5.4715 17.4791-12.606 34.2338-20.8587 50.3509l38.0018 63.2591c14.192 22.6936 21.3274 56.033 0 77.4045l-38.7263 38.6848c-10.4294 10.4749-24.4494 14.8739-38.6004 14.8739-14.6587 0-29.4942-4.7878-40.5622-12.4805l-61.5978-39.2384c-15.9868 8.2924-32.6572 15.3876-50.0111 21.0297l-15.77 71.0378c-4.701 26.0733-27.4875 54.2832-57.7042 54.2832h-54.71314772489924c-30.2227 0-48.729-28.6376-54.7131-54.7109l-17.5708-70.1834c-18.5052-5.898-36.3329-13.4609-53.2591-22.3978L297.2497 647.7033c-11.1139 7.6938-25.9035 12.4805-40.6071 12.4805-14.106 0-28.1261-4.399-38.6004-14.8739l-38.6814-38.6848c-21.3724-21.3715-14.191-54.7109 0-77.4045l39.9635-66.5929c-7.4772-15.1317-14.146-30.6892-19.2747-47.0171l-70.1863-15.5984c-26.0734-4.7078-54.2854-27.4864-54.2854-57.7089v-54.71090600572811c0-30.2165 28.6388-48.727 54.7131-54.7109l71.0807-17.735c4.9189-15.0918 11.028-29.5779 17.9985-43.5974l-40.0085-66.6798c-14.191-22.6526-21.3324-55.992 0-77.3635l38.7263-38.6848c10.4304-10.4699 24.4494-14.9159 38.5954-14.9159 14.6637 0 29.4942 4.7878 40.5672 12.4815l63.2617 40.3496c17.0521-9.0159 34.9647-16.6707 53.6009-22.5687l17.5258-70.0135c5.9842-26.0723 24.4894-54.7109 54.7131-54.7109h54.71314772489924c30.2168 0 53.0032 28.2109 57.7042 54.2832l15.77 71.2497c17.1831 5.5612 33.6825 12.5725 49.4575 20.7329l61.7237-39.3233c11.0679-7.6938 25.9035-12.4815 40.5622-12.4815 14.151 0 28.1711 4.446 38.6004 14.9159l38.7263 38.6848c21.3274 21.3715 14.192 54.7109 0 77.3635l-38.0418 63.3461c7.6481 15.0448 14.2769 30.6882 19.6175 46.9312l71.0867 17.735c26.0744 5.9839 54.7131 24.4944 54.7131 54.7109v54.71090600572811C950.9832 372.5258 922.7722 395.3044 896.6978 400.0122zM907.2131 287.5934c0-2.1775-8.0759-9.1018-21.5433-12.2637l-71.0867-17.736-23.4641-5.858-7.5222-22.9954c-4.4452-13.5068-10.1735-27.1846-17.0122-40.6524l-11.028-21.5814 12.481-20.7729 38.4705-64.0686c6.9246-11.0735 7.6931-21.6733 6.1951-23.2123l-38.8123-38.7257c-1.8808-1.8797-6.281-2.0516-7.6082-2.0516-5.3866 0-11.5416 1.8807-15.645 4.7018l-0.6836 0.4727-0.7245 0.4687-61.6837 39.3233-21.2864 13.5928-22.3977-11.6271c-14.06-7.311-28.4679-13.335-42.7847-17.9508l-23.8518-7.7348-5.3856-24.4484-15.8159-71.2547-0.3418-1.7098c-1.624-9.0619-9.8767-18.2946-14.6187-18.2946h-54.71314772489924c-2.1826 0-9.1472 8.0755-12.2702 21.5824l-17.4799 70.0175-5.9442 23.7199-23.3391 7.397c-15.5591 4.9127-31.1582 11.4942-46.3745 19.5298l-22.4837 11.838-21.4573-13.6787-63.2617-40.3027-0.7295-0.4687-0.6846-0.4727c-4.1034-2.8211-10.2585-4.7018-15.644-4.7018-1.3222 0-5.7274 0.1719-7.6481 2.1376l-38.6864 38.6398c-1.539 1.538-0.8095 12.1378 6.5428 23.9348l40.0085 66.6798 12.3501 20.5161-10.6862 21.4575c-6.4519 12.9482-11.5406 25.3028-15.5591 37.6585l-7.5232 23.0364-23.509 5.858-71.8962 17.9528c-12.6919 2.945-20.7278 9.8703-20.7278 12.0478v54.71090600572811c0 4.7468 9.1871 12.9932 18.2494 14.6631l0.9004 0.1309 0.8545 0.2109 70.1863 15.5585 24.7063 5.4713 7.5632 24.1067c4.0634 12.8633 9.5349 26.1583 16.7164 40.6914l10.6862 21.4565-12.3561 20.5621-40.3913 67.3164c-6.9246 11.0275-7.6941 21.6683-6.1551 23.2063l38.6814 38.6848c1.8808 1.8807 5.9842 2.0516 7.6541 2.0516 5.4255 0 11.5406-1.7948 15.645-4.6159l0.6836-0.5127 0.7695-0.4677 63.1308-40.2237 21.4184-13.6318 22.4837 11.837c14.9605 7.8647 30.4746 14.4472 46.2036 19.4048l23.2132 7.437 5.9382 23.6789 17.7417 70.9979c2.9071 12.6924 9.9167 20.7279 12.0543 20.7279h54.71314772489924c4.742 0 12.9947-9.1928 14.6187-18.2546l0.1709-0.8944 0.1709-0.8544 15.77-71.0388 5.4315-24.4484 23.8518-7.6938c14.5327-4.7018 29.1055-10.8566 43.3424-18.2087l22.3977-11.6261 21.2874 13.5468 61.5518 39.2434 0.7245 0.4677 0.6836 0.5127c4.1034 2.8211 10.2595 4.6159 15.645 4.6159 1.3272 0 5.7274-0.1249 7.6931-2.0516l38.6414-38.6398c1.584-1.539 0.8145-12.2247-6.5368-23.9358l-38.0028-63.2591-12.481-20.8589 11.028-21.6283c7.7391-15.1307 13.6383-29.4071 18.0845-43.5125l7.5622-24.1916 24.7063-5.4713 70.2323-15.5585 0.8545-0.2568 0.8545-0.0849c9.0612-1.6699 18.2943-9.9163 18.2943-14.6631V287.5934116668899zM513.6218 492.5075c-96.7334 0-175.5082-78.6067-175.5082-175.2452 0-96.6435 78.7748-175.2052 175.5082-175.2052 96.8133 0 175.5492 78.5607 175.5492 175.2052C689.171 413.9008 610.4352 492.5075 513.6218 492.5075zM514.0486 184.8001c-72.9675 0-132.3817 59.2418-132.3817 131.9895 0 72.7477 59.4152 131.9495 132.3817 131.9495 72.9625 0 132.3377-59.2019 132.3377-131.9495C646.3863 244.0419 587.0111 184.8001 514.0486 184.8001z"  horiz-adv-x="1000" />

    
    <glyph glyph-name="sousuo" unicode="&#13374;" d="M936.4725-24.3641 737.6731 179.129c-1.9468 1.9986-4.4322 2.8631-6.5948 4.5379 41.6635 58.6832 66.3567 130.2237 66.3567 207.7082 0 198.5754-161.0274 359.6512-359.6659 359.6512-198.6355 0-359.6659-161.0758-359.6659-359.6512 0-198.6303 161.0304-359.6502 359.6659-359.6502 82.1377 0 157.5716 27.7722 218.0921 74.1317 1.0803-1.2941 1.511-2.8631 2.6473-4.0503l198.7974-203.546c10.8071-11.0785 25.184-16.6427 39.5568-16.6427 13.9401 0 27.9372 5.2404 38.6884 15.7783C957.3861-81.3155 957.8169-46.2482 936.4725-24.3641zM133.438 391.375c0 167.7742 136.552 304.3197 304.3321 304.3197 167.8371 0 304.3321-136.5464 304.3321-304.3197 0-167.8312-136.4951-304.3207-304.3321-304.3207C269.99 87.0544 133.438 223.5438 133.438 391.375z"  horiz-adv-x="1000" />

    
    <glyph glyph-name="suo" unicode="&#58902;" d="M822.994944 429.793024l-78.337024 0 0 97.92c0 129.585152-105.418752 235.014144-235.015168 235.014144-129.593344 0-235.01312-105.428992-235.01312-235.014144l0-97.92-78.337024 0c-32.398336 0-58.753024-26.35776-58.753024-58.753024l0-470.018048c0-32.39936 26.355712-58.754048 58.753024-58.754048l626.702336 0c32.398336 0 58.754048 26.354688 58.754048 58.754048L881.748992 371.04C881.748992 403.435264 855.392256 429.793024 822.994944 429.793024zM313.798656 527.713024c0 107.993088 87.863296 195.846144 195.844096 195.846144 107.981824 0 195.844096-87.853056 195.844096-195.846144l0-97.92L313.798656 429.793024 313.798656 527.713024zM842.579968-98.978048c0-10.806272-8.779776-19.586048-19.585024-19.586048L196.292608-118.564096c-10.795008 0-19.585024 8.779776-19.585024 19.586048L176.707584 371.04c0 10.795008 8.790016 19.582976 19.585024 19.582976l626.702336 0c10.805248 0 19.585024-8.787968 19.585024-19.582976L842.579968-98.978048zM509.642752 233.94688c-32.454656 0-58.752-26.297344-58.752-58.750976 0-17.339392 7.648256-32.764928 19.584-43.510784l0-54.414336c0-21.629952 17.539072-39.168 39.168-39.168 21.630976 0 39.171072 17.538048 39.171072 39.168l0 54.414336c11.931648 10.745856 19.582976 26.172416 19.582976 43.510784C568.3968 207.649536 542.099456 233.94688 509.642752 233.94688z"  horiz-adv-x="1024" />

    
    <glyph glyph-name="pengyouquan" unicode="&#58951;" d="M348.83584 167.98592 83.70176 433.103616c-12.787712-41.644032-19.683328-85.87264-19.683328-131.724288 0-50.643968 8.408064-99.311616 23.880704-144.703488l270.917632 0C355.388416 160.342784 352.0256 164.098816 348.83584 167.98592zM936.77056 446.075648 665.853952 446.075648c3.453952-3.657728 6.790144-7.445504 9.980928-11.331584l265.109504-265.115648c12.795904 41.66144 19.689472 85.87264 19.689472 131.750912C960.632832 352.016128 952.246272 400.68992 936.77056 446.075648zM907.916288 512.487168c-44.222464 82.597888-113.456128 149.74464-197.69856 191.222784L518.995968 512.487168 907.916288 512.487168zM116.791296 90.25408c43.990016-82.269184 112.868352-149.177344 196.64384-190.73024l190.710784 190.73024L116.791296 90.25408zM722.868224 286.310144l0-380.836864c82.536448 44.009472 149.6832 113.043456 191.307776 196.989952L723.243008 293.385984C723.160064 291.012352 723.014656 288.63872 722.868224 286.310144zM512.331776 749.680384c-50.64704 0-99.311616-8.404992-144.69632-23.860224l0-270.7712L642.92864 730.32064C601.614336 742.914816 557.761536 749.680384 512.331776 749.680384zM380.607488-127.232256c41.634816-12.807168 85.87264-19.698688 131.724288-19.698688 50.435072 0 98.870272 8.302592 144.108544 23.64928L656.44032 147.298048c-3.467264-3.254272-7.042048-6.416384-10.719232-9.43104L380.607488-127.232256zM301.232128 696.936192c-82.2784-44.018688-149.21216-112.886784-190.729216-196.661248l190.729216-190.72L301.232128 696.936192z"  horiz-adv-x="1024" />

    
    <glyph glyph-name="22" unicode="&#58892;" d="M512 635.25 65 635.25l0-670.5 4.118 0 52.688 0L512-35.25l390.194 0 52.688 0L959-35.25l0 670.5L512 635.25zM883.395 605.45 512 258.808 140.606 605.45 883.395 605.45zM883.395-5.449 140.606-5.449l283.595 264.693-21.841 20.371L96.925-5.449 94.8-5.449 94.8 605.45l2.125 0L512 218.051 927.076 605.45l2.124 0 0-610.899-2.124 0L621.641 279.615 599.8 259.244 883.395-5.449z"  horiz-adv-x="1024" />

    
    <glyph glyph-name="er-up" unicode="&#58901;" d="M711.038 208.289l-276.11 276.11 75.302 75.302 276.11-276.11-75.302-75.302zM234.11 283.598l276.11 276.11 75.302-75.302-276.11-276.11-75.302 75.302z"  horiz-adv-x="1024" />

    
    <glyph glyph-name="diannao" unicode="&#58903;" d="M916.095431 747.53171l-806.580179 0c-38.815027 0-70.393233-31.578206-70.393233-70.393233L39.122019 94.60812c0-38.815027 31.578206-70.39221 70.393233-70.39221l332.896856 0 0-128.074957L333.565075-103.859048c-14.128789 0-25.582655-11.453866-25.582655-25.582655s11.453866-25.582655 25.582655-25.582655L692.045609-155.024357c14.129812 0 25.582655 11.453866 25.582655 25.582655s-11.452843 25.582655-25.582655 25.582655L583.198575-103.859048 583.198575 24.21591l332.896856 0c38.815027 0 70.39221 31.577183 70.39221 70.39221L986.487641 677.139499C986.487641 715.953504 954.910459 747.53171 916.095431 747.53171zM109.515253 696.3664l806.580179 0c10.601452 0 19.2269-8.625448 19.2269-19.227923l0-467.328591L90.287329 209.809885 90.287329 677.139499C90.287329 687.740952 98.9138 696.3664 109.515253 696.3664zM532.033265-103.859048l-38.455847 0L493.577419 24.21591l38.455847 0L532.033265-103.859048zM916.095431 75.38122l-806.580179 0c-10.601452 0-19.227923 8.625448-19.227923 19.2269l0 64.037479 845.035002 0 0-64.037479C935.322331 84.006667 926.697907 75.38122 916.095431 75.38122z"  horiz-adv-x="1024" />

    
    <glyph glyph-name="guanji" unicode="&#58881;" d="M512-155.371258c-58.700937 0-115.659183 11.501962-169.292708 34.187637-51.791573 21.904892-98.299817 53.260018-138.231271 93.192495s-71.287603 86.440721-93.193519 138.232295c-22.684652 53.633524-34.187637 110.591771-34.187637 169.292708 0 85.417415 24.753777 168.104649 71.585385 239.124146 45.63434 69.204152 109.605304 123.718743 184.998411 157.6526 1.444908 0.649799 2.89698 1.294482 4.352121 1.929955 12.945847 5.656837 28.028357-0.254803 33.68417-13.202697 5.655813-12.94687-0.255827-28.028357-13.202697-33.68417-1.280156-0.558725-2.558265-1.125637-3.831258-1.698688-66.537416-29.948079-122.999358-78.069053-163.2859-139.16248-41.302685-62.635549-63.133899-135.582955-63.133899-210.957643 0-102.500489 39.916105-198.866257 112.394836-271.344988s168.844499-112.394836 271.344988-112.394836 198.866257 39.916105 271.344988 112.394836 112.394836 168.844499 112.394836 271.344988c0 76.847226-22.627347 150.986783-65.434292 214.405161-41.796942 61.922305-100.117209 110.010533-168.655188 139.066289-13.008268 5.514597-19.082614 20.529569-13.568017 33.537837 5.514597 13.009292 20.528546 19.080567 33.538861 13.56904 77.66894-32.926924 143.747915-87.405699 191.093223-157.548222 48.536436-71.906703 74.191746-155.944701 74.191746-243.031129 0-58.699913-11.501962-115.65816-34.187637-169.292708-21.905916-51.791573-53.261041-98.299817-93.193519-138.232295s-86.440721-71.287603-138.231271-93.192495C627.659183-143.869297 570.700937-155.371258 512-155.371258zM512 417.680213c-14.128789 0-25.582655 11.453866-25.582655 25.582655l0 286.525736c0 14.128789 11.453866 25.582655 25.582655 25.582655s25.582655-11.453866 25.582655-25.582655l0-286.525736C537.582655 429.135102 526.128789 417.680213 512 417.680213z"  horiz-adv-x="1024" />

    
    <glyph glyph-name="weixin" unicode="&#58889;" d="M693.12 464.736c11.776 0 23.36-0.896 35.008-2.176-31.36 146.048-187.456 254.528-365.696 254.528C163.2 717.088 0 581.344 0 408.864c0-99.52 54.272-181.248 145.024-244.736L108.8 55.136l126.72 63.488c45.312-8.896 81.664-18.112 126.912-18.112 11.392 0 22.656 0.512 33.792 1.344-7.04 24.256-11.2 49.6-11.2 76.032C385.088 336.224 521.024 464.736 693.12 464.736zM498.304 562.976c27.392 0 45.376-17.984 45.376-45.248 0-27.136-17.984-45.312-45.376-45.312-27.072 0-54.336 18.176-54.336 45.312C443.968 545.056 471.168 562.976 498.304 562.976zM244.672 472.416c-27.2 0-54.592 18.176-54.592 45.312 0 27.264 27.392 45.248 54.592 45.248S289.92 545.056 289.92 517.728C289.92 490.592 271.872 472.416 244.672 472.416zM1024 182.24c0 144.896-145.024 262.976-307.904 262.976-172.48 0-308.224-118.144-308.224-262.976 0-145.28 135.808-262.976 308.224-262.976 36.096 0 72.512 9.024 108.736 18.112l99.392-54.528-27.264 90.624C969.728 28.128 1024 100.512 1024 182.24zM616.128 227.616c-17.984 0-36.224 17.92-36.224 36.224 0 18.048 18.24 36.224 36.224 36.224 27.52 0 45.376-18.176 45.376-36.224C661.504 245.536 643.648 227.616 616.128 227.616zM815.488 227.616c-17.856 0-36.032 17.92-36.032 36.224 0 18.048 18.112 36.224 36.032 36.224 27.264 0 45.376-18.176 45.376-36.224C860.864 245.536 842.752 227.616 815.488 227.616z"  horiz-adv-x="1024" />

    
    <glyph glyph-name="tianjia" unicode="&#58953;" d="M960 268C960 533.152 745.152 748 480 748 214.912 748 0 533.152 0 268 0 2.912 214.912-212 480-212 745.152-212 960 2.912 960 268zM64 268C64 497.376 250.624 684 480 684S896 497.376 896 268 709.376-148 480-148 64 38.624 64 268zM704 300 512 300 512 492c0 17.664-14.336 32-32 32S448 509.664 448 492l0-192L256 300C238.336 300 224 285.664 224 268S238.336 236 256 236l192 0 0-192c0-17.664 14.336-32 32-32S512 26.336 512 44L512 236l192 0c17.664 0 32 14.336 32 32S721.664 300 704 300z"  horiz-adv-x="1024" />

    
    <glyph glyph-name="yonghu" unicode="&#58880;" d="M703.400215-99.074204c-3.51915 0-7.078209 0.991584-10.240225 3.066849-30.28884 19.875676-80.136132 25.263383-97.079012 25.678846l-22.119787 0-35.287691-0.271176c-0.048095 0-0.095167 0-0.143263 0L92.740194-70.599685c-10.326183 0-18.696828 8.370645-18.696828 18.696828l0 22.467711c-0.318248 6.266727-0.910743 40.603767 21.004383 78.307484 13.716396 23.598464 33.431414 43.86095 58.598606 60.225663 30.493501 19.828604 69.116147 33.909297 114.796536 41.84913 0.233314 0.039909 0.466628 0.075725 0.700965 0.107447 0.346901 0.047072 35.499515 4.858658 71.208808 14.273075 61.894675 16.317641 67.307965 30.743188 67.345828 30.884404 0.364297 1.430582 0.89437 2.803859 1.572822 4.095271 0.50756 2.699482 1.76418 12.858866-0.63752 40.079834-6.100952 69.136613-42.120306 109.995183-71.061452 142.825916-9.127891 10.354835-17.749246 20.133549-24.387433 29.722952-28.640294 41.37227-31.296797 88.416725-31.396057 90.39887-0.01535 0.311085-0.022513 0.62217-0.022513 0.933255 0 18.779715 9.363252 27.418466 17.624403 35.041074l0.433882 0.401136c0.271176 0.25071 0.442068 0.436952 0.542352 0.556679 0.093121 1.340531-0.566912 4.743024-1.013073 7.04137-0.169869 0.873903-0.339738 1.750877-0.50142 2.632967-7.179516 38.981826-7.670703 99.19214-1.175779 137.837298 2.409886 50.813293 46.224788 89.711208 48.105624 91.356684 0.071631 0.062422 0.143263 0.12382 0.214894 0.185218 6.290263 5.338588 12.671601 11.169387 16.727986 17.636682 0.487094 0.775666 0.827855 1.37737 1.066285 1.836835-0.304945 0.786922-0.741897 1.793856-1.094938 2.608407-2.436492 5.618974-6.118348 14.109346-4.02364 25.02393 1.263783 6.589069 6.078439 18.362206 24.118304 23.173792 7.261381 1.937119 15.022135 2.333138 20.689205 2.62171l1.122567 0.058328c22.38994 1.178849 46.272883 2.176572 70.435189 0.324388 174.730557-13.396101 234.920404-78.686107 237.396805-81.459267 0.140193-0.155543 0.276293-0.314155 0.409322-0.474814 13.986549-16.756639 24.347524-37.635155 30.7964-62.055334 2.01489-7.619538 3.309372-14.016225 4.062526-20.072151 6.102998-35.464723 5.084808-71.904657 3.78214-96.269577-0.732687-13.675464-2.257413-28.030403-4.800329-45.175899-0.691755-4.656043 0.068562-5.564739 0.355087-5.906523 0.75827-0.906649 1.686409-1.892093 2.667759-2.934842 3.862981-4.099365 9.152451-9.713222 11.964496-18.721387 1.410116-4.502547 2.069125-9.360182 2.069125-15.267728 0-0.311085-0.008186-0.62217-0.022513-0.933255-0.099261-1.982144-2.755764-49.0266-31.395034-90.397846-6.639211-9.590426-15.259542-19.36914-24.387433-29.722952-28.942169-32.829709-64.960501-73.689303-71.061452-142.827963-2.4017-27.220968-1.14508-37.379329-0.63752-40.079834 0.678452-1.291412 1.208525-2.664689 1.572822-4.094248 0.036839-0.141216 5.471618-14.613836 67.648726-30.964222 35.7052-9.388834 70.557986-14.146185 70.90591-14.193257 0.303922-0.040932 0.606821-0.090051 0.908696-0.145309 46.095851-8.549723 84.956927-22.991644 115.505687-42.923602 25.252127-16.476253 44.930305-36.7019 58.489112-60.114123 21.50171-37.128619 20.626783-70.714552 20.195971-77.443813l0-22.332634c0-10.326183-8.370645-18.696828-18.696828-18.696828L775.884063-70.602755c-10.326183 0-18.696828 8.370645-18.696828 18.696828s8.370645 18.696828 18.696828 18.696828l158.188812 0L934.072875-28.897911c0 0.686638 0.00921 1.106194 0.081864 1.769296 0.104377 1.508353 1.627057 28.332279-16.349363 58.130955-10.82044 17.937534-26.589588 33.609469-46.870494 46.580898-26.100448 16.693194-59.762105 28.967752-100.05274 36.482913-4.63967 0.642636-39.012526 5.564739-75.080999 15.059997-70.761624 18.629289-87.964424 39.353286-93.189426 54.395888-4.004197 7.765871-6.245238 23.195282-2.984984 60.153008 7.18054 81.369216 49.41955 129.282458 80.260975 164.268274 8.747221 9.921977 16.301268 18.491143 21.693068 26.279526 21.120017 30.510898 24.437575 66.300009 24.765033 70.606081-0.032746 2.252297-0.260943 3.223415-0.36225 3.549849-0.248663 0.798179-1.89721 2.547009-3.490497 4.238534-1.25048 1.327228-2.667759 2.832512-4.136204 4.587482-7.950066 9.504468-10.782577 21.079084-8.66024 35.384905 2.367931 15.960507 3.781116 29.206182 4.449335 41.684378 1.951445 36.502355 0.913812 63.747883-3.363607 88.341001-0.057305 0.326435-0.105401 0.654916-0.145309 0.983397-0.531096 4.438079-1.530866 9.354042-3.14769 15.46932-4.986571 18.884093-12.726859 34.770921-23.006993 47.232744-1.714038 1.747807-15.385409 15.125489-45.883003 29.67588-54.882981 26.183336-120.791064 35.849486-166.417217 39.34817-21.934568 1.681292-44.442188 0.732687-65.614393-0.382717l-1.178849-0.060375c-1.766226-0.090051-4.735861-0.2415-7.55814-0.525979 2.447748-5.841032 5.453199-14.632255 2.296299-25.136493-1.184989-3.939729-3.003404-7.792477-5.723352-12.129248-6.732331-10.733459-15.923668-19.23611-24.054859-26.145473-1.597381-1.441838-34.223452-31.356149-35.351136-65.738213-0.028653-0.86981-0.11768-1.736551-0.267083-2.594081-5.972015-34.304294-5.568832-90.780563 0.898463-125.894292 0.140193-0.765433 0.288572-1.52575 0.435928-2.282996 1.980097-10.205433 5.294586-27.284413-10.879792-42.202171l-0.434905-0.402159c-2.086521-1.924839-4.943592-4.560876-5.41636-5.468548l0 0c0.00307 0-0.13303-0.426719-0.164752-1.584078 0.328481-4.295839 3.654226-40.060391 24.76401-70.554916 5.3918-7.788383 12.945847-16.356526 21.693068-26.279526 30.841426-34.984792 73.079412-82.899058 80.259952-164.266227 3.260254-36.95875 1.019213-52.388161-2.984984-60.154032-5.226025-15.042601-22.427802-35.766598-93.189426-54.395888-36.365232-9.574053-71.006194-14.497179-75.18947-15.074324-39.83424-6.958482-73.196069-18.883069-99.160417-35.44528-20.185738-12.876262-35.971259-28.599362-46.919613-46.732347-18.282389-30.281677-17.133216-57.860802-17.055444-59.33641 0.050142-0.543376 0.054235-0.867764 0.054235-1.433652l0-4.309142 427.01135 0 35.287691 0.271176c0.047072 0 0.095167 0 0.143263 0l22.423709 0c0.141216 0 0.280386-0.001023 0.421602-0.005117 2.895957-0.064468 71.446215-1.943258 116.949572-31.803333 8.633634-5.665023 11.039427-17.254989 5.374404-25.888624C715.458855-96.104569 709.488887-99.074204 703.400215-99.074204zM631.466905 206.1238c0.454348-0.36839 0.890276-0.757247 1.305739-1.164522C632.378671 205.346087 631.943766 205.73699 631.466905 206.1238zM414.041968 206.1238c-0.471744-0.382717-0.901533-0.768503-1.292436-1.152243C413.160901 205.373717 413.592736 205.75848 414.041968 206.1238z"  horiz-adv-x="1024" />

    
    <glyph glyph-name="biaoqian" unicode="&#58893;" d="M898.771369 533.849002 869.105722 523.818555 923.482167 363.137992 457.020316-103.336138 108.440269 245.241862 574.901097 711.718039 748.578672 652.938308 758.610142 682.602931 566.521243 747.62176 64.156694 245.241862 457.020316-147.62176 959.384865 354.727439ZM668.056754 557.505795c-27.052123 0-52.464909-10.535961-71.593572-29.650297-39.466873-39.46585-39.466873-103.675244 0-143.141094 19.128663-19.129686 44.541449-29.650297 71.576175-29.650297s52.449559 10.520611 71.579245 29.650297c19.114336 19.113313 29.649274 44.543496 29.649274 71.578222 0 21.744233-6.91141 42.35669-19.510356 59.573817L950.088128 716.167375c6.118348 6.100952 6.118348 16.024975 0 22.141276-6.116301 6.116301-16.025998 6.116301-22.1423 0L727.615221 538.008742C710.41242 550.608711 689.785637 557.505795 668.056754 557.505795zM717.47835 406.85568c-13.211906-13.211906-30.765701-20.475334-49.438992-20.475334-18.670222 0-36.222993 7.263427-49.435922 20.475334-27.250644 27.26497-27.250644 71.608921 0 98.858542 13.211906 13.211906 30.764678 20.47431 49.452295 20.47431 18.670222 0 36.224016-7.263427 49.421596-20.458961 13.195533-13.196557 20.47431-30.751375 20.47431-49.436946S730.67286 420.052237 717.47835 406.85568z"  horiz-adv-x="1024" />

    
    <glyph glyph-name="baocun" unicode="&#58900;" d="M819.8144-156.064 204.1856-156.064C119.8336-156.064 51.2-87.4816 51.2-3.104L51.2 603.0784c0 84.3776 68.6336 153.0112 152.9856 153.0112l615.6544 0C904.1664 756.064 972.8 687.456 972.8 603.0784L972.8-3.104C972.8-87.4816 904.192-156.064 819.8144-156.064L819.8144-156.064zM204.1856 696.3648c-51.456 0-93.312-41.8304-93.312-93.312L110.8736-3.104c0-51.456 41.856-93.3376 93.312-93.3376l615.6544 0c51.456 0 93.312 41.8816 93.312 93.3376L913.152 603.0784c0 51.4816-41.856 93.312-93.312 93.312L204.1856 696.3904 204.1856 696.3648zM807.04 298.5664 216.96 298.5664 216.96 756.064l590.1056 0L807.0656 298.5664 807.04 298.5664zM276.608 358.2656l470.784 0L747.392 696.3648l-470.784 0L276.608 358.2656 276.608 358.2656zM599.8592 608.5568l59.648 0 0-198.9376-59.648 0L599.8592 608.5568 599.8592 608.5568zM599.8592 608.5568"  horiz-adv-x="1024" />

    
    <glyph glyph-name="shujuku" unicode="&#58894;" d="M512-180c-226.08 0-403.16032 79.68256-403.16032 181.32352L108.83968 598.70848C108.83968 700.384 285.92 780 512 780s403.16032-79.616 403.16032-181.29152l0-597.38496C915.16032-100.31744 738.08-180 512-180zM512 741.62816c-218.19008 0-364.78976-73.89952-364.78976-142.91968l0-597.38496c0-69.02016 146.59968-142.8864 364.78976-142.8864s364.78976 73.86624 364.78976 142.8864L876.78976 598.70848C876.78976 667.72864 730.19008 741.62816 512 741.62816zM512 24.82176c-226.08 0-403.16032 79.616-403.16032 181.25696 0 10.59456 8.56064 19.22048 19.18464 19.22048 10.6304 0 19.18464-8.62464 19.18464-19.22048 0-69.02016 146.59968-142.8864 364.78976-142.8864s364.78976 73.86624 364.78976 142.8864c0 10.59456 8.55552 19.22048 19.18464 19.22048 10.62528 0 19.18464-8.62464 19.18464-19.22048C915.16032 104.43776 738.08 24.82176 512 24.82176zM512 229.64352c-226.08 0-403.16032 79.61472-403.16032 181.25696 0 10.59456 8.56064 19.21792 19.18464 19.21792 10.6304 0 19.18464-8.62208 19.18464-19.21792 0-69.02016 146.59968-142.88768 364.78976-142.88768s364.78976 73.86752 364.78976 142.88768c0 10.59456 8.55552 19.21792 19.18464 19.21792 10.62528 0 19.18464-8.62208 19.18464-19.21792C915.16032 309.25824 738.08 229.64352 512 229.64352zM512 434.464c-226.08 0-403.16032 79.616-403.16032 181.2928 0 10.62784 8.56064 19.18464 19.18464 19.18464 10.6304 0 19.18464-8.55808 19.18464-19.18464 0-69.02144 146.59968-142.92096 364.78976-142.92096s364.78976 73.89952 364.78976 142.92096c0 10.62784 8.55552 19.18464 19.18464 19.18464 10.62528 0 19.18464-8.55808 19.18464-19.18464C915.16032 514.08 738.08 434.464 512 434.464z"  horiz-adv-x="1024" />

    
    <glyph glyph-name="x" unicode="&#58925;" d="M302.786071 90.787094c-10.194176 10.194176-9.943466 26.976398 0.559748 37.479613l380.388497 380.388497c10.503215 10.503215 27.285436 10.753925 37.479613 0.559748 10.194176-10.194176 9.943466-26.976398-0.559748-37.479613L340.265684 91.34582C329.762469 80.842605 312.981271 80.591895 302.786071 90.787094zM302.786071 509.213929c10.194176 10.194176 26.976398 9.943466 37.479613-0.559748l380.388497-380.388497c10.503215-10.503215 10.753925-27.285436 0.559748-37.479613s-26.976398-9.94449-37.479613 0.559748L303.34582 471.734316C292.842605 482.237531 292.591895 499.018729 302.786071 509.213929z"  horiz-adv-x="1024" />

    
    <glyph glyph-name="gengxin" unicode="&#58907;" d="M511.707334-146.890097c-60.402695 0-119.008464 11.834536-174.191274 35.175127-53.290717 22.539342-101.144608 54.803163-142.235468 95.893001-41.09086 41.09086-73.353658 88.945775-95.894024 142.235468C76.045977 181.59631 64.211441 240.203102 64.211441 300.605797s11.834536 119.009488 35.175127 174.192298c22.540366 53.289694 54.803163 101.144608 95.894024 142.235468 41.09086 41.09086 88.945775 73.354682 142.235468 95.894024C392.697847 736.267155 451.304639 748.101691 511.707334 748.101691c60.402695 0 119.009488-11.834536 174.192298-35.175127 53.289694-22.539342 101.145631-54.803163 142.235468-95.893001 41.09086-41.09086 73.354682-88.945775 95.894024-142.235468 23.340591-55.18281 35.175127-113.789603 35.175127-174.192298s-11.834536-119.009488-35.175127-174.192298c-22.539342-53.289694-54.803163-101.144608-95.894024-142.235468-41.089837-41.089837-88.945775-73.353658-142.235468-95.893001C630.715799-135.05556 572.110029-146.890097 511.707334-146.890097zM511.707334 707.169443c-54.895261 0-108.135836-10.746762-158.246117-31.94148-48.411593-20.476357-91.892897-49.79408-129.237433-87.137593-37.344536-37.34556-66.662259-80.826863-87.138616-129.237433-21.194718-50.110281-31.94148-103.351879-31.94148-158.24714 0-54.895261 10.746762-108.136859 31.94148-158.24714 20.476357-48.41057 49.79408-91.892897 87.138616-129.237433s80.82584-66.662259 129.237433-87.137593c50.110281-21.194718 103.351879-31.94148 158.246117-31.94148s108.136859 10.746762 158.24714 31.94148c48.411593 20.476357 91.892897 49.793056 129.237433 87.137593s66.663282 80.826863 87.138616 129.237433c21.194718 50.110281 31.94148 103.351879 31.94148 158.24714 0 54.895261-10.746762 108.136859-31.94148 158.24714-20.476357 48.41057-49.79408 91.891873-87.138616 129.23641s-80.82584 66.662259-129.237433 87.138616C619.84317 696.422681 566.601572 707.169443 511.707334 707.169443zM536.38027 63.838326 536.38027 455.373697 724.507952 266.927767 752.551658 294.948961 511.700171 536.161674 270.849708 294.948961 298.892391 266.927767 487.510236 455.86386 487.510236 63.838326Z"  horiz-adv-x="1024" />

    
    <glyph glyph-name="bianji" unicode="&#59013;" d="M119.928832-147.681536l643.183616 0c30.886912 0 55.929856 25.04192 55.929856 55.927808L819.042304 317.80224l-55.929856-53.395456 0-356.160512L119.928832-91.753728 119.928832 607.361792l392.909824 0 56.544256 54.480896-1.462272 1.447936L119.928832 663.290624c-30.885888 0-55.928832-25.042944-55.928832-55.928832l0-699.114496C64-122.639616 89.042944-147.681536 119.928832-147.681536zM915.935232 711.224064c-25.233408 24.196096-53.088256 36.458496-82.80064 36.458496-46.507008 0-80.42496-30.040064-89.65632-39.230464-13.080576-12.916736-383.789056-383.0784-383.789056-383.0784-2.90816-2.963456-5.03808-6.582272-6.117376-10.609664-10.036224-37.113856-60.366848-201.856-60.858368-203.493376-2.593792-8.43776-0.273408-17.642496 5.940224-23.786496 4.46464-4.48 10.418176-6.85568 16.52224-6.85568 2.403328 0 4.819968 0.356352 7.195648 1.093632 1.707008 0.572416 171.718656 55.545856 199.697408 63.901696 3.687424 1.091584 7.046144 3.086336 9.803776 5.789696 17.655808 17.424384 358.391808 352.874496 385.974272 381.35808 28.510208 29.412352 42.684416 59.998208 42.1376 90.966016C959.465472 654.312192 944.582656 683.765504 915.935232 711.224064zM877.674496 571.674368c-15.565824-16.057344-137.418752-136.46336-362.186752-357.885952l-17.205248-16.958464c-25.765888-7.975936-87.471104-27.8016-134.115328-42.848256 15.020032 49.59232 33.04448 109.507584 41.07264 137.841664 48.036864 47.96928 365.628416 365.0816 377.699328 376.988672 2.349056 2.349056 23.786496 22.939648 50.194432 22.939648 14.993408 0 29.438976-6.841344 44.10368-20.905984 17.532928-16.822272 26.571776-32.989184 26.817536-48.091136C904.329216 607.217408 895.453184 590.040832 877.674496 571.674368z"  horiz-adv-x="1024" />

    
    <glyph glyph-name="printer" unicode="&#59004;" d="M947.2 607.2l-76.8 0 0 128c0 42.3424-34.4576 76.8-76.8 76.8l-563.2 0c-42.3424 0-76.8-34.4576-76.8-76.8l0-128-76.8 0c-42.3424 0-76.8-34.4576-76.8-76.8l0-460.8c0-42.3424 34.4576-76.8 76.8-76.8l76.8 0 0-128c0-42.3424 34.4576-76.8 76.8-76.8l563.2 0c42.3424 0 76.8 34.4576 76.8 76.8l0 128 76.8 0c42.3424 0 76.8 34.4576 76.8 76.8l0 460.8c0 42.3424-34.4576 76.8-76.8 76.8zM204.8 735.2c0 14.1312 11.4688 25.6 25.6 25.6l563.2 0c14.1312 0 25.6-11.4688 25.6-25.6l0-128-614.4 0 0 128zM793.6-160.8l-563.2 0c-14.1312 0-25.6 11.4688-25.6 25.6l0 332.8 614.4 0 0-332.8c0-14.1312-11.4688-25.6-25.6-25.6zM972.8 69.6c0-14.1312-11.4688-25.6-25.6-25.6l-76.8 0 0 153.6 25.6 0c14.1312 0 25.6 11.4688 25.6 25.6s-11.4688 25.6-25.6 25.6l-768 0c-14.1312 0-25.6-11.4688-25.6-25.6s11.4688-25.6 25.6-25.6l25.6 0 0-153.6-76.8 0c-14.1312 0-25.6 11.4688-25.6 25.6l0 460.8c0 14.1312 11.4688 25.6 25.6 25.6l870.4 0c14.1312 0 25.6-11.4688 25.6-25.6l0-460.8zM742.4 95.2l-460.8 0c-14.1312 0-25.6 11.4688-25.6 25.6s11.4688 25.6 25.6 25.6l460.8 0c14.1312 0 25.6-11.4688 25.6-25.6s-11.4688-25.6-25.6-25.6zM742.4-7.2l-460.8 0c-14.1312 0-25.6 11.4688-25.6 25.6s11.4688 25.6 25.6 25.6l460.8 0c14.1312 0 25.6-11.4688 25.6-25.6s-11.4688-25.6-25.6-25.6zM742.4-109.6l-460.8 0c-14.1312 0-25.6 11.4688-25.6 25.6s11.4688 25.6 25.6 25.6l460.8 0c14.1312 0 25.6-11.4688 25.6-25.6s-11.4688-25.6-25.6-25.6zM844.8 351.2c-42.3424 0-76.8 34.4576-76.8 76.8s34.4576 76.8 76.8 76.8 76.8-34.4576 76.8-76.8-34.4576-76.8-76.8-76.8zM844.8 453.6c-14.1312 0-25.6-11.4688-25.6-25.6s11.4688-25.6 25.6-25.6 25.6 11.4688 25.6 25.6-11.4688 25.6-25.6 25.6z"  horiz-adv-x="1024" />

    
    <glyph glyph-name="biaodan" unicode="&#58883;" d="M900.042105 655.705263l-113.178947 0c-10.778947 0-21.557895-10.778947-21.557895-21.557895s10.778947-21.557895 21.557895-21.557895l113.178947 0 0-738.357895L123.957895-125.768421 123.957895 612.589474l113.178947 0c10.778947 0 21.557895 10.778947 21.557895 21.557895S253.305263 655.705263 237.136842 655.705263L123.957895 655.705263C102.4 655.705263 80.842105 634.147368 80.842105 612.589474l0-738.357895c0-21.557895 21.557895-43.115789 43.115789-43.115789l776.084211 0c21.557895 0 43.115789 21.557895 43.115789 43.115789L943.157895 612.589474C943.157895 634.147368 921.6 655.705263 900.042105 655.705263L900.042105 655.705263 900.042105 655.705263zM339.536842 607.2l350.315789 0c10.778947 0 21.557895 10.778947 21.557895 21.557895s-10.778947 21.557895-21.557895 21.557895L619.789474 650.315789c0 5.389474 0 5.389474 0 10.778947 0 59.284211-48.505263 107.789474-107.789474 107.789474-59.284211 0-107.789474-48.505263-107.789474-107.789474 0-5.389474 0-5.389474 0-10.778947L339.536842 650.315789c-10.778947 0-21.557895-10.778947-21.557895-21.557895S323.368421 607.2 339.536842 607.2L339.536842 607.2 339.536842 607.2zM447.326316 661.094737c0 37.726316 26.947368 64.673684 64.673684 64.673684 37.726316 0 64.673684-26.947368 64.673684-64.673684 0-5.389474 0-5.389474 0-10.778947L447.326316 650.315789C447.326316 655.705263 447.326316 661.094737 447.326316 661.094737L447.326316 661.094737 447.326316 661.094737zM291.031579 397.010526l441.936842 0c10.778947 0 21.557895 10.778947 21.557895 21.557895 0 10.778947-10.778947 21.557895-21.557895 21.557895L291.031579 440.126316c-10.778947 0-21.557895-10.778947-21.557895-21.557895C269.473684 407.789474 280.252632 397.010526 291.031579 397.010526L291.031579 397.010526 291.031579 397.010526zM291.031579 208.378947l441.936842 0c10.778947 0 21.557895 10.778947 21.557895 21.557895 0 10.778947-10.778947 21.557895-21.557895 21.557895L291.031579 251.494737c-10.778947 0-21.557895-10.778947-21.557895-21.557895C269.473684 219.157895 280.252632 208.378947 291.031579 208.378947L291.031579 208.378947 291.031579 208.378947zM291.031579 19.747368l441.936842 0c10.778947 0 21.557895 10.778947 21.557895 21.557895 0 10.778947-10.778947 21.557895-21.557895 21.557895L291.031579 62.863158c-10.778947 0-21.557895-10.778947-21.557895-21.557895C269.473684 30.526316 280.252632 19.747368 291.031579 19.747368L291.031579 19.747368 291.031579 19.747368z"  horiz-adv-x="1024" />

    
    <glyph glyph-name="bingli" unicode="&#58891;" d="M647.35872 896l-66.69824 0 0-68.2624 0-166.1632c0-68.45696 55.49312-123.95008 123.9488-123.95008l166.16576 0 0-533.9072c0-35.008-27.904-63.38688-62.32704-63.38688L216.34944-59.66976c-34.42304 0-62.32704 28.3776-62.32704 63.38688L154.0224 764.35072c0 35.008 27.904 63.38688 62.32704 63.38688l278.98368 0L495.33312 896 188.1536 896C131.6032 896 85.76 850.1568 85.76 793.6064l0-819.14496c0-56.5504 45.8432-102.3936 102.3936-102.3936l648.49024 0c56.5504 0 102.3936 45.8432 102.3936 102.3936l0 631.2064L647.35872 896zM717.184 605.88544c-37.69984 0-68.2624 30.56256-68.2624 68.2624L648.9216 793.6064l187.72096-187.72096L717.184 605.88544zM282.01344 25.65888l460.76928 0c4.71296 0 8.53248 3.81952 8.53248 8.53248l0 51.19616c0 4.71168-3.81952 8.53248-8.53248 8.53248L282.01344 93.92c-4.71168 0-8.53248-3.8208-8.53248-8.53248l0-51.19616C273.48096 29.47712 277.30176 25.65888 282.01344 25.65888zM751.3152 238.97728c0 4.71168-3.81952 8.53248-8.53248 8.53248L282.01344 247.50976c-4.71168 0-8.53248-3.8208-8.53248-8.53248l0-51.19616c0-4.71424 3.8208-8.53248 8.53248-8.53248l460.76928 0c4.71296 0 8.53248 3.81952 8.53248 8.53248L751.3152 238.97728zM751.3152 392.56704c0 4.71168-3.81952 8.53248-8.53248 8.53248L282.01344 401.09952c-4.71168 0-8.53248-3.8208-8.53248-8.53248l0-51.19616c0-4.71168 3.8208-8.53248 8.53248-8.53248l460.76928 0c4.71296 0 8.53248 3.8208 8.53248 8.53248L751.3152 392.56704zM341.74336 759.4752 341.74336 674.14784 256.41472 674.14784 256.41472 605.88544 341.74336 605.88544 341.74336 520.55808 410.00448 520.55808 410.00448 605.88544 495.33184 605.88544 495.33184 674.14784 410.00448 674.14784 410.00448 759.4752Z"  horiz-adv-x="1024" />

    
    <glyph glyph-name="shanxiyidongduankaoqinjiankongzhishikushouye01" unicode="&#58895;" d="M588.8 638.4 281.6 638.4l0-64 307.2 0L588.8 638.4zM882.176 733.184 826.24 733.184c0 17.472 0 28.032 0 28.032 0 38.528-31.232 69.824-69.824 69.824L141.888 831.04c-38.592 0-69.824-31.296-69.824-69.824l0-628.544c0-38.656 31.232-69.824 69.824-69.824 0 0 359.68 0 515.968 0 82.88 83.776 168.448 182.144 168.448 179.84 0 131.392 0 340.608 0 448.704l55.936 0c15.36 0 27.968-12.544 27.968-27.968l0-656.448c0-15.488-12.544-28.032-27.968-28.032L267.584-21.056c-15.488 0-27.968 12.48-27.968 28.032l0 41.856L197.76 48.832l0-41.856c0-38.656 31.232-69.952 69.824-69.952l614.592 0c38.528 0 69.824 31.296 69.824 69.952L952 663.36C952 701.952 920.704 733.184 882.176 733.184zM630.656 104.704 616.768 104.704l0 153.6 167.616 0L630.656 104.704zM784.384 300.224 616.768 300.224 574.848 300.224l0-41.92 0-153.6L141.888 104.704l0 13.952L127.872 118.656l0 14.016L113.92 132.672 113.92 761.216l13.952 0L127.872 775.104l14.016 0L141.888 789.12l614.592 0 0-14.016 13.952 0 0-13.952 14.016 0L784.448 300.224zM281.536 437.248 588.8 437.248l0 64L281.536 501.248 281.536 437.248zM281.536 275.2l167.552 0 0 64L281.536 339.2 281.536 275.2z"  horiz-adv-x="1024" />

    
    <glyph glyph-name="paixu" unicode="&#58890;" d="M838.636 159.146v655.875c0 10.35-8.4 18.75-18.75 18.75h-79.537c-10.35 0-18.713-8.4-18.713-18.75v-637.125c0-10.35-8.4-18.75-18.75-18.75h-81c-16.838 0-25.125-20.55-12.975-32.25l158.25-152.025c7.238-6.975 18.712-6.975 25.95 0l158.25 152.025c12.15 11.7 3.863 32.25-13.012 32.25h-99.713zM405.102-65.726h-234c-10.8 0-20.738 5.7-25.838 14.813-5.062 9.225-4.5 20.325 1.5 28.875l203.662 293.625h-179.325c-16.163 0-29.25 12.638-29.25 28.125 0 15.563 13.087 28.088 29.25 28.088h234c10.725 0 20.7-5.587 25.762-14.813 5.1-9.112 4.5-20.213-1.425-28.875l-203.737-293.625h179.4c16.125 0 29.25-12.525 29.25-28.087 0-15.487-13.125-28.125-29.25-28.125zM218.397 608.891l69.713 133.95 69.637-133.95h-139.35zM489.709 480.979l-175.5 337.313c-4.987 9.45-15.075 15.487-26.1 15.487-11.1 0-21.262-6.037-26.175-15.487l-175.5-337.313c-7.2-13.95-1.388-30.75 13.087-37.763 4.2-1.987 8.663-2.962 13.050-2.962 10.688 0 21.038 5.7 26.175 15.562l50.438 96.975h197.85l50.475-96.975c7.2-13.837 24.787-19.538 39.225-12.6 14.475 6.9 20.288 23.813 13.087 37.763h-0.112z"  horiz-adv-x="1024" />

    
    <glyph glyph-name="buchongiconsvg13" unicode="&#58983;" d="M361.911 126.622c14.129 0 25.584 11.454 25.584 25.584v236.684c0 14.129-11.454 25.584-25.584 25.584s-25.584-11.454-25.584-25.584v-236.684c0-14.129 11.454-25.584 25.584-25.584zM512.316 99.647c14.129 0 25.584 11.454 25.584 25.584v290.633c0 14.129-11.454 25.584-25.584 25.584s-25.584-11.454-25.584-25.584v-290.633c-0-14.129 11.455-25.584 25.584-25.584zM662.723 126.622c14.129 0 25.584 11.454 25.584 25.584v236.684c0 14.129-11.454 25.584-25.584 25.584s-25.584-11.454-25.584-25.584v-236.684c-0-14.129 11.454-25.584 25.584-25.584zM866.648 697.949h-223.495v37.829c0 46.097-37.503 83.601-83.601 83.601l-95.099 0c-46.097 0-83.601-37.503-83.601-83.601v-37.829h-223.494c-44.378 0-80.483-36.104-80.483-80.483 0-44.378 36.104-80.483 80.483-80.483h19.496v-444.793c0-77.708 63.22-140.928 140.928-140.928h388.441c77.708 0 140.928 63.22 140.928 140.928v444.793h19.496c44.379 0 80.483 36.104 80.483 80.483s-36.104 80.483-80.483 80.483zM432.021 735.778c0 17.884 14.549 32.433 32.433 32.433h95.098c17.884 0 32.433-14.549 32.433-32.433v-37.829h-159.965v37.829zM795.984 92.19c0-49.495-40.267-89.761-89.761-89.761h-388.441c-49.495 0-89.761 40.267-89.761 89.761v444.793h567.962v-444.793zM866.648 588.151h-709.29c-16.164 0-29.315 13.15-29.315 29.315s13.15 29.315 29.315 29.315h709.29c16.165 0 29.315-13.151 29.315-29.315s-13.151-29.315-29.315-29.315z"  horiz-adv-x="1025" />

    
    <glyph glyph-name="dingdandaochu" unicode="&#59115;" d="M748.544 738.050269 567.453538 556.684348 720.580923 403.178378 901.750154 584.702148 1024 462.13414 1024 856.514261 630.390154 856.514261 748.544 738.050269 748.544 738.050269ZM897.200136 647.036408 716.030902 465.512639 625.131209 556.669141 806.221666 738.113985 732.099824 812.53873 975.496751 812.53873 975.496751 568.586571 897.200136 647.036408ZM825.895385-44.475023 264.743385-44.475023C186.446769-44.475023 122.801231 19.295067 122.801231 97.744905L122.801231 659.995049C122.801231 738.444887 186.446768 802.214975 264.743385 802.214975L517.277538 802.214975 517.277538 846.333149 264.743385 846.333149C162.185846 846.333149 78.769231 762.674365 78.769231 659.995049L78.769231 97.744905C78.769231-4.934409 162.185846-88.59319 264.743385-88.59319L825.895385-88.59319C928.374154-88.59319 1011.869538-5.013333 1011.869538 97.744905L1011.869538 352.193876 967.837538 352.193876 967.837538 97.744905C967.837538 19.295068 904.192-44.475023 825.895385-44.475023ZM248.123077 502.621835 441.028923 502.621835 441.028923 458.503667 248.123077 458.503667 248.123077 502.621835 248.123077 502.621835ZM248.123077 292.606726 842.515692 292.606726 842.515692 248.488557 248.123077 248.488557 248.123077 292.606726 248.123077 292.606726ZM248.123077 129.787796 842.515692 129.787796 842.515692 85.669628 248.123077 85.669628 248.123077 129.787796 248.123077 129.787796Z"  horiz-adv-x="1103" />

    
    <glyph glyph-name="xiangxia" unicode="&#59047;" d="M798.945 479.648l-72.818 72.818-218.453-218.453-218.453 218.453-72.818-72.818 291.271-291.271 291.271 291.271z"  horiz-adv-x="1024" />

    
    <glyph glyph-name="yonghuguanli" unicode="&#58896;" d="M703.944 384c8.65 0 17.5-0.6 27.3-1.9l7.649-22.85 5.2-15.55 15.649-4.851c10.75-3.35 21.25-7.699 31.149-12.85l14.5-7.6 14.649 7.35 21.55 10.8c14.399-11.25 27.398-24.2 38.799-38.7l-10.75-21.55-7.3-14.6 7.5-14.45c5.25-10.1 9.6-20.65 12.949-31.3l4.9-15.65 15.55-5.2 22.949-7.649c1.3-9.8 1.9-18.7 1.8-27l0-0.15 0-0.149c0-8.5-0.6-17.551-1.899-27.351l-22.95-7.649-15.649-5.301-4.85-15.75c-3.25-10.699-7.55-21.1-12.75-30.899l-7.699-14.55 7.35-14.7 10.8-21.601c-6-7.8-11.95-14.6-18-20.649l-0.05-0.05-0.05-0.051c-6.05-6.1-12.8-12-20.55-17.949l-21.6 10.8-14.6 7.3-14.5-7.55c-10.1-5.25-20.649-9.601-31.249-12.95l-15.649-4.9-5.1-15.5-7.65-22.949c-9.8-1.301-18.799-1.9-27.35-1.9-8.499 0-17.499 0.6-27.349 1.9l-7.65 22.949-5.149 15.65-15.75 4.85c-10.699 3.301-21.1 7.551-30.899 12.75l-14.549 7.7-14.75-7.35-21.6-10.8c-7.75 6-14.55 11.949-20.6 18-6.199 6.199-12.149 13-17.999 20.649l10.749 21.5 7.3 14.65-7.6 14.5c-5.25 10.05-9.6 20.5-12.85 31.05l-4.85 15.75-15.6 5.2L481.9 132.6C480.6 142.4 480 151.45 480 159.95s0.6 17.55 1.9 27.35l22.849 7.601 15.6 5.199 4.851 15.7c3.35 10.8 7.699 21.25 12.85 31.15l7.6 14.5-7.3 14.649-10.8 21.601c11.3 14.45 24.249 27.399 38.649 38.649l21.549-10.8 14.7-7.35 14.55 7.649c9.8 5.15 20.299 9.5 31.149 12.9l15.649 4.9 5.199 15.55 7.65 22.95C686.646 383.4 695.495 384 703.944 384L703.944 384zM704.053 448c-14.518 0-29.036-1.35-45.636-3.994l-12.323-1.969-15.531-46.688c-14.181-4.443-27.967-10.068-41.078-16.987l-43.948 22.05-10.128-7.312c-24.816-17.943-46.537-39.656-64.544-64.462l-7.315-10.182 22.003-43.987c-6.865-13.106-12.549-26.831-16.994-41.062l-46.649-15.469-1.969-12.318C417.294 189.025 416 174.119 416 160s1.294-29.081 3.939-45.619l1.969-12.318 46.649-15.581c4.389-14.231 10.072-27.956 16.994-41.062l-21.89-43.819 7.314-10.181c9.68-13.444 19.414-24.862 29.486-34.987 10.129-10.182 21.553-19.744 34.945-29.531l10.128-7.312 43.948 21.993c13.111-6.919 26.785-12.6 41.078-16.987l15.531-46.688 12.323-1.969c16.6-2.644 31.512-3.938 45.636-3.938s29.036 1.294 45.637 3.938l12.323 1.969 15.53 46.688c14.181 4.443 27.967 10.182 41.078 16.987l43.948-21.993 10.129 7.312c13.448 9.73 24.872 19.35 34.944 29.531 10.129 10.181 19.751 21.543 29.486 34.987l7.315 10.181-22.003 43.988c6.922 13.105 12.605 26.831 16.994 41.062l46.649 15.581 1.97 12.318c2.645 16.594 3.938 31.5 3.938 45.619 0.112 14.062-1.182 28.969-3.883 45.562l-1.97 12.318-46.648 15.581c-4.445 14.231-10.129 27.957-16.994 41.062l22.002 43.988-7.314 10.181c-18.12 24.75-39.841 46.463-64.656 64.463l-10.129 7.312-43.948-21.994c-13.111 6.862-26.785 12.544-41.078 16.987l-15.53 46.52-12.211 1.912C733.146 446.706 718.571 448 704.053 448L704.053 448 704.053 448zM704 192c8.559 0 16.584-3.327 22.629-9.371C732.673 176.584 736 168.559 736 160s-3.327-16.584-9.371-22.629C720.584 131.327 712.559 128 704 128s-16.584 3.327-22.629 9.371C675.327 143.416 672 151.441 672 160s3.327 16.584 9.371 22.629C687.416 188.673 695.441 192 704 192L704 192zM704 256c-53.002 0-96-42.998-96-96s42.998-96 96-96 96 42.998 96 96S757.002 256 704 256L704 256 704 256zM483.007 420.034C557.859 464.711 608 546.494 608 640 608 781.385 493.385 896 352 896S96 781.385 96 640c0-93.507 50.142-175.291 124.996-219.967C109.587 369.979 32 258.053 32 128l0-224c0-17.673 14.327-32 32-32s32 14.327 32 32L96 128c0 141.385 114.615 256 256 256 48.559 0 93.959-13.52 132.644-37l100.68 0C556.563 377.629 521.838 402.587 483.007 420.034zM160 640c0 106.039 85.961 192 192 192 106.039 0 192-85.961 192-192s-85.961-192-192-192C245.961 448 160 533.961 160 640z"  horiz-adv-x="1024" />

    
    <glyph glyph-name="iconfontdaohangsanjiao" unicode="&#58910;" d="M207.244 79.994l609.512-1.514v611.040z"  horiz-adv-x="1024" />

    
    <glyph glyph-name="c-datadictionary" unicode="&#58886;" d="M816.671 615.424c-0.342-1.393-0.729-2.777-1.141-4.159-0.125-0.41-0.252-0.817-0.381-1.227-0.311-1.001-0.645-2.003-0.993-3-0.145-0.42-0.289-0.84-0.44-1.257-0.135-0.367-0.289-0.731-0.428-1.098-0.356-0.944-0.711-1.89-1.1-2.83-0.135-0.328-0.287-0.653-0.426-0.981-0.299-0.698-0.616-1.395-0.932-2.089-0.137-0.299-0.264-0.602-0.403-0.901-0.256-0.551-0.52-1.098-0.788-1.647-0.117-0.24-0.242-0.475-0.36-0.715-0.285-0.569-0.565-1.139-0.862-1.706-0.283-0.543-0.555-1.085-0.848-1.624-0.135-0.254-0.289-0.504-0.426-0.758-0.502-0.911-1.006-1.821-1.538-2.728-0.377-0.641-0.772-1.278-1.163-1.915-0.381-0.618-0.762-1.237-1.153-1.851-0.459-0.717-0.924-1.432-1.401-2.144-0.336-0.502-0.682-1.001-1.026-1.501-0.903-1.313-1.839-2.617-2.804-3.916-0.008-0.010-0.016-0.023-0.025-0.033-0.967-1.298-1.962-2.591-2.99-3.875-0.094-0.117-0.186-0.231-0.281-0.346-0.19-0.238-0.381-0.473-0.571-0.711-0.688-0.842-1.38-1.679-2.093-2.517-0.053-0.063-0.111-0.127-0.166-0.19-0.137-0.16-0.279-0.319-0.418-0.481-1.583-1.835-3.226-3.66-4.934-5.464-0.008-0.008-0.016-0.016-0.025-0.027-3.301-3.488-6.834-6.918-10.59-10.291-0.012-0.008-0.023-0.018-0.033-0.027-1.792-1.61-3.641-3.205-5.536-4.786l-0.498-0.414c-3.942-3.275-8.116-6.484-12.478-9.634 21.486-4.684 42.164-11.547 61.78-20.376l0 97.219h-2.529zM0.453 702.933c8.679-83.585 141.070-152.615 316.643-170.852 18.579-1.929 37.642-3.291 57.094-4.041 11.669-0.451 23.48-0.68 35.41-0.68 3.975 0 7.94 0.027 11.889 0.076 27.646 0.354 54.604 1.942 80.615 4.645 32.414 3.367 63.345 8.473 92.307 15.073 2.476 0.565 4.936 1.141 7.383 1.726 18.866 4.52 36.856 9.683 53.819 15.428 3.293 1.114 6.549 2.251 9.765 3.41 6.928 2.494 13.679 5.085 20.226 7.774 4.665 1.917 9.222 3.885 13.689 5.894 4.426 1.993 8.747 4.033 12.97 6.113 1.913 0.944 3.803 1.896 5.675 2.859 6.257 3.215 12.284 6.527 18.039 9.935 0.068 0.041 0.135 0.084 0.207 0.125 8.294 4.921 16.056 10.037 23.239 15.329 1.743 1.284 3.441 2.583 5.114 3.887 6.674 5.2 12.812 10.557 18.354 16.062 1.415 1.407 2.781 2.826 4.121 4.252 5.218 5.552 9.861 11.241 13.869 17.056 1.939 2.812 3.713 5.657 5.358 8.526 1.806 3.154 3.439 6.337 4.878 9.554 0.805 1.794 1.544 3.6 2.232 5.415 2.777 7.34 4.61 14.825 5.401 22.434 0.137 1.327 0.244 2.656 0.319 3.992 0.088 1.579 0.131 3.166 0.131 4.755 0 101.798-183.384 184.32-409.6 184.32s-409.6-82.522-409.6-184.32c0-1.589 0.045-3.176 0.133-4.758 0.076-1.333 0.182-2.664 0.319-3.99zM458.486 16.696c-3.705-0.197-7.408-0.395-11.141-0.551-0.983-0.041-1.97-0.080-2.955-0.119-5.188-0.197-10.396-0.352-15.636-0.461-0.864-0.020-1.733-0.031-2.597-0.045-5.495-0.096-11.008-0.16-16.556-0.16s-11.061 0.063-16.556 0.162c-0.864 0.016-1.733 0.027-2.597 0.045-5.239 0.109-10.449 0.264-15.634 0.461-0.987 0.039-1.972 0.078-2.957 0.119-5.233 0.215-10.441 0.467-15.614 0.77-0.633 0.037-1.262 0.080-1.892 0.121-5.155 0.311-10.281 0.664-15.372 1.063-0.389 0.031-0.782 0.057-1.174 0.088-5.206 0.414-10.369 0.883-15.505 1.384-0.85 0.082-1.7 0.164-2.546 0.25-5.020 0.504-10.002 1.053-14.948 1.64-0.786 0.092-1.571 0.19-2.355 0.287-5.114 0.623-10.197 1.278-15.229 1.987-0.156 0.020-0.309 0.043-0.465 0.068-5.075 0.717-10.101 1.483-15.088 2.284-0.487 0.080-0.977 0.154-1.462 0.231-4.891 0.797-9.73 1.64-14.533 2.517-0.709 0.129-1.415 0.26-2.12 0.391-4.794 0.889-9.548 1.815-14.25 2.783-0.465 0.094-0.926 0.195-1.391 0.293-9.791 2.036-19.37 4.241-28.725 6.609-0.457 0.117-0.913 0.227-1.368 0.344-4.536 1.159-9.015 2.355-13.441 3.588-0.51 0.143-1.018 0.287-1.526 0.428-4.504 1.268-8.956 2.566-13.341 3.908-0.113 0.037-0.223 0.072-0.338 0.106-4.565 1.403-9.069 2.843-13.5 4.321-0.051 0.016-0.102 0.033-0.152 0.049-4.286 1.434-8.497 2.91-12.655 4.415-0.236 0.086-0.481 0.164-0.717 0.25h0.027c-81.715 29.751-137.476 73.355-149.643 122.88l-2.533-0v-122.88c0-82.676 120.963-152.637 287.592-176.003v0c0.016-0.002 0.035-0.004 0.049-0.006 4.293-0.602 8.624-1.161 12.976-1.702 1.055-0.129 2.109-0.258 3.166-0.385 4.309-0.518 8.634-1.014 12.999-1.47 0.063-0.006 0.125-0.014 0.188-0.020 4.422-0.461 8.878-0.877 13.355-1.272 1.090-0.096 2.179-0.19 3.271-0.283 4.44-0.375 8.894-0.727 13.384-1.038 0.053-0.004 0.106-0.008 0.162-0.012 4.528-0.311 9.091-0.578 13.668-0.821 1.128-0.061 2.259-0.121 3.389-0.176 4.563-0.225 9.14-0.43 13.748-0.588 0.033-0.002 0.066-0.004 0.098-0.004 4.624-0.16 9.277-0.27 13.943-0.36 1.169-0.023 2.341-0.043 3.512-0.059 4.684-0.070 9.378-0.121 14.098-0.121s9.417 0.049 14.098 0.121c1.171 0.018 2.343 0.039 3.512 0.059 4.665 0.090 9.318 0.201 13.943 0.36 0.033 0 0.066 0.002 0.098 0.004 4.608 0.158 9.185 0.362 13.75 0.588 1.13 0.055 2.261 0.115 3.387 0.176 4.577 0.244 9.14 0.51 13.672 0.821 0.049 0.004 0.098 0.008 0.15 0.012 4.493 0.309 8.954 0.664 13.398 1.038 1.090 0.092 2.177 0.186 3.262 0.283 4.479 0.395 8.937 0.811 13.361 1.272 0.055 0.006 0.115 0.012 0.172 0.018 4.368 0.457 8.7 0.954 13.013 1.473 1.055 0.127 2.107 0.254 3.16 0.385 4.352 0.541 8.686 1.1 12.98 1.702 0.016 0.002 0.035 0.004 0.049 0.006 52.763 7.397 100.936 19.474 142.15 35.142-84.933 4.377-161.079 42.527-215.271 101.235zM0.213 268.751c0.066-0.981 0.143-1.96 0.244-2.939 0.053-0.526 0.117-1.051 0.18-1.575 0.113-0.928 0.24-1.853 0.383-2.779 0.080-0.514 0.158-1.028 0.248-1.54 0.172-0.997 0.371-1.995 0.578-2.986 0.086-0.42 0.166-0.84 0.258-1.257 0.315-1.407 0.659-2.806 1.047-4.202 0.039-0.139 0.086-0.279 0.125-0.418 0.352-1.253 0.733-2.505 1.143-3.752 0.147-0.453 0.311-0.901 0.467-1.352 0.326-0.942 0.662-1.884 1.018-2.82 0.19-0.5 0.385-0.995 0.586-1.493 0.365-0.911 0.743-1.821 1.137-2.726 0.207-0.475 0.412-0.954 0.625-1.427 0.457-1.008 0.936-2.013 1.43-3.017 0.174-0.352 0.338-0.709 0.514-1.061 0.686-1.358 1.403-2.71 2.154-4.057 0.113-0.201 0.236-0.399 0.348-0.6 0.645-1.141 1.313-2.275 2.005-3.408 0.258-0.42 0.528-0.838 0.793-1.257 0.58-0.918 1.169-1.835 1.778-2.748 0.303-0.455 0.612-0.907 0.924-1.362 0.621-0.905 1.26-1.806 1.911-2.705 0.303-0.418 0.602-0.838 0.913-1.253 0.778-1.051 1.583-2.095 2.402-3.138 0.195-0.246 0.381-0.496 0.575-0.741 1.047-1.313 2.124-2.615 3.234-3.912 0.166-0.195 0.34-0.385 0.506-0.575 0.938-1.083 1.894-2.165 2.873-3.238 0.338-0.369 0.684-0.735 1.026-1.104 0.846-0.909 1.706-1.815 2.583-2.716 0.379-0.389 0.762-0.78 1.147-1.167 0.907-0.915 1.835-1.827 2.773-2.734 0.348-0.336 0.69-0.672 1.042-1.008 1.196-1.137 2.417-2.267 3.662-3.391 0.098-0.088 0.19-0.178 0.289-0.266 1.403-1.257 2.836-2.511 4.299-3.752 0.193-0.164 0.393-0.326 0.586-0.489 1.235-1.040 2.49-2.077 3.768-3.107 0.379-0.303 0.762-0.606 1.145-0.909 1.137-0.903 2.29-1.802 3.459-2.695 0.41-0.313 0.817-0.627 1.231-0.936 1.239-0.936 2.499-1.864 3.772-2.787 0.326-0.236 0.645-0.471 0.973-0.709 3.297-2.365 6.709-4.696 10.236-6.988 0.16-0.104 0.322-0.207 0.481-0.307 1.575-1.020 3.172-2.030 4.792-3.033 0.365-0.227 0.733-0.453 1.102-0.678 1.468-0.901 2.955-1.8 4.461-2.689 0.379-0.221 0.756-0.446 1.135-0.67 1.638-0.961 3.297-1.913 4.977-2.857 0.213-0.121 0.424-0.242 0.639-0.362 3.946-2.21 8.004-4.379 12.167-6.502 0.094-0.045 0.188-0.094 0.283-0.141 1.929-0.981 3.883-1.954 5.859-2.916 0.311-0.152 0.623-0.301 0.936-0.455 1.833-0.889 3.684-1.767 5.556-2.64 0.295-0.135 0.588-0.274 0.885-0.412 8.741-4.047 17.887-7.909 27.417-11.583 0.211-0.080 0.422-0.162 0.633-0.242 2.241-0.86 4.499-1.71 6.783-2.548 0.141-0.051 0.285-0.106 0.426-0.158 9.873-3.619 20.13-7.033 30.734-10.232l0.244-0.072c32.229-9.705 67.676-17.414 105.488-22.716v0c0.016-0.002 0.035-0.004 0.049-0.006 1.251-0.176 2.525-0.328 3.783-0.496 2.482-0.336 4.97-0.664 7.471-0.981 0.578-0.072 1.145-0.154 1.722-0.225 1.055-0.129 2.109-0.258 3.166-0.385 0.287-0.035 0.575-0.063 0.862-0.098 3.148-0.375 6.312-0.731 9.488-1.071 0.887-0.096 1.759-0.209 2.648-0.299 0.063-0.006 0.125-0.014 0.188-0.020 1.341-0.139 2.703-0.254 4.051-0.385 2.415-0.24 4.835-0.471 7.264-0.692 0.682-0.061 1.356-0.133 2.038-0.195 1.090-0.096 2.179-0.19 3.271-0.283 0.256-0.023 0.516-0.039 0.772-0.059 3.656-0.305 7.326-0.592 11.014-0.854 0.535-0.039 1.063-0.086 1.597-0.125 0.053-0.004 0.106-0.008 0.162-0.012 1.339-0.092 2.697-0.158 4.043-0.244 2.488-0.158 4.983-0.309 7.483-0.451 0.717-0.039 1.425-0.090 2.142-0.129 1.128-0.061 2.259-0.121 3.389-0.176 0.172-0.008 0.344-0.014 0.516-0.023 3.748-0.184 7.51-0.344 11.287-0.481 0.651-0.025 1.292-0.061 1.946-0.084 0.033-0.002 0.066-0.004 0.098-0.004 1.311-0.045 2.636-0.063 3.949-0.102 2.482-0.074 4.973-0.137 7.467-0.193 0.846-0.018 1.681 0.401 2.527 0.385 1.169-0.023 2.341 0.391 3.512 0.391h0.182c0.074 0-0.42-0.457-0.42-0.457v-0.225c5.286-0.055 8.694-0.184 12.464-0.217-21.058 42.254-32.928 90.036-32.928 140.366 0 1.241 0.033 1.845 0.047 3.893-0.010 0-0.023 0-0.035 0-0.987 0-1.972-0.1-2.957-0.059-5.233 0.215-10.441 0.377-15.614 0.68-0.633 0.037-1.262 0.037-1.892 0.076-5.155 0.311-10.281 0.641-15.372 1.040-0.389 0.031-0.782 0.047-1.174 0.078-5.206 0.414-10.369 0.877-15.505 1.378-0.85 0.082-1.7 0.16-2.546 0.246-5.020 0.504-10.002 1.053-14.948 1.64-0.786 0.092-1.571 0.188-2.355 0.285-5.114 0.623-10.197 1.278-15.229 1.987-0.156 0.020-0.309 0.043-0.465 0.068-5.075 0.717-10.101 1.483-15.088 2.284-0.487 0.080-0.977 0.154-1.462 0.231-4.891 0.797-9.73 1.64-14.533 2.517-0.709 0.129-1.415 0.26-2.12 0.391-4.794 0.889-9.548 1.815-14.25 2.783-0.465 0.094-0.926 0.195-1.391 0.293-9.791 2.036-19.37 4.241-28.725 6.609-0.457 0.117-0.913 0.227-1.368 0.344-4.536 1.159-9.015 2.355-13.441 3.588-0.51 0.143-1.018 0.287-1.526 0.428-4.504 1.268-8.956 2.566-13.341 3.908-0.113 0.037-0.223 0.072-0.338 0.106-4.565 1.403-9.069 2.843-13.5 4.321-0.051 0.016-0.102 0.033-0.152 0.049-4.286 1.434-8.497 2.398-12.655 3.903-0.059 0.023-0.119 0.016-0.178-0.004-0.002-0.002-0.006-0.004-0.010-0.006-0.166-0.059-0.336-0.225-0.5-0.244-0.004 0-0.008-0.004-0.012-0.004-4.872 1.833-9.646 3.711-14.33 5.628-0.223 0.092-0.453 0.18-0.676 0.272-4.649 1.911-9.196 3.867-13.65 5.859-0.242 0.109-0.489 0.213-0.729 0.319-4.469 2.009-8.831 4.061-13.097 6.152-0.205 0.102-0.418 0.201-0.623 0.299-4.446 2.187-8.78 4.42-12.995 6.693-0.012 0.006-0.027 0.014-0.039 0.020-3.963 2.136-7.809 4.313-11.561 6.525-0.252 0.147-0.512 0.293-0.764 0.442-7.965 4.721-15.438 9.601-22.385 14.635-0.006 0.004-0.012 0.008-0.018 0.014-27.623 20.011-46.934 42.389-55.792 66.384-1.176 3.185-2.179 6.396-2.982 9.636l-2.529-0v-121.856c0-1.44 0.045-2.875 0.119-4.309 0.023-0.469 0.063-0.926 0.094-1.382zM0.213 486.869c0.068-0.985 0.143-1.968 0.244-2.949 0.053-0.518 0.117-1.036 0.178-1.552 0.115-0.94 0.244-1.88 0.389-2.816 0.078-0.498 0.154-0.993 0.24-1.491 0.18-1.042 0.385-2.083 0.604-3.121 0.078-0.367 0.145-0.735 0.227-1.102 0.643-2.869 1.436-5.718 2.367-8.548 0.090-0.272 0.188-0.541 0.281-0.811 0.397-1.169 0.817-2.335 1.264-3.496 0.109-0.283 0.219-0.563 0.33-0.844 0.485-1.233 0.997-2.46 1.536-3.682 0.068-0.154 0.133-0.307 0.203-0.461 29.614-66.234 138.115-119.624 279.521-139.452v0c0.016-0.002 0.035-0.004 0.049-0.006 4.293-0.602 8.624-1.161 12.976-1.702 1.055-0.129 2.109-0.258 3.166-0.385 4.309-0.518 8.634-1.014 12.999-1.47 0.063-0.006 0.125-0.014 0.188-0.020 4.422-0.461 8.878-0.877 13.355-1.272 1.090-0.096 2.179-0.19 3.271-0.283 4.44-0.375 8.894-0.727 13.384-1.038 0.053-0.004 0.106-0.008 0.162-0.012 4.528-0.311 9.091-0.578 13.668-0.821 1.128-0.061 2.259-0.121 3.389-0.176 0.066-0.004 0.129-0.006 0.195-0.008 6.683-0.352 13.429-0.608 20.201-0.815 14.238 55.679 43.327 105.478 82.786 144.902-0.846-0.055-1.683-0.125-2.531-0.174-0.573-0.037-1.147-0.076-1.72-0.109-0.057-0.004-0.117-0.008-0.174-0.010-1.724-0.1-3.467-0.174-5.204-0.256-3.465-0.18-6.922-0.369-10.41-0.512-0.864-0.035-1.733-0.070-2.601-0.104-0.119-0.004-0.238-0.010-0.358-0.014-0.117-0.004-0.236-0.008-0.352-0.010-5.071-0.19-10.16-0.344-15.28-0.451-0.864-0.020-1.733-0.031-2.597-0.045-5.497-0.102-11.010-0.166-16.558-0.166s-11.061 0.063-16.556 0.162c-0.864 0.016-1.733 0.027-2.597 0.045-5.241 0.109-10.449 0.264-15.634 0.461-0.248 0.010-0.494 0.020-0.739 0.031-0.739 0.029-1.481 0.057-2.218 0.088-3.924 0.162-7.817 0.369-11.71 0.578-1.296 0.070-2.607 0.117-3.901 0.193-0.127 0.006-0.254 0.016-0.381 0.025-0.506 0.031-1.008 0.063-1.513 0.096-1.718 0.104-3.412 0.242-5.124 0.354-3.42 0.225-6.849 0.442-10.24 0.709-0.289 0.023-0.575 0.043-0.86 0.063-0.106 0.008-0.213 0.016-0.319 0.025-2.99 0.238-5.941 0.524-8.905 0.795-2.204 0.19-4.411 0.375-6.595 0.59-0.293 0.029-0.586 0.057-0.879 0.086-0.557 0.053-1.116 0.109-1.671 0.164-5.020 0.504-10.002 1.053-14.948 1.64-0.379 0.043-0.758 0.092-1.135 0.137-0.41 0.049-0.819 0.1-1.229 0.15-5.11 0.621-10.191 1.276-15.219 1.985-0.057 0.006-0.113 0.016-0.17 0.025-0.1 0.014-0.199 0.029-0.299 0.043-2.363 0.334-4.686 0.711-7.031 1.065-1.214 0.188-2.441 0.365-3.656 0.555-1.458 0.227-2.943 0.432-4.395 0.666-0.489 0.080-0.985 0.154-1.477 0.233-1.487 0.242-2.941 0.514-4.418 0.764-3.381 0.573-6.771 1.141-10.111 1.751-0.354 0.066-0.707 0.129-1.061 0.195s-0.709 0.129-1.061 0.197c-4.794 0.889-9.548 1.815-14.25 2.783-0.465 0.094-0.926 0.195-1.391 0.293-4.897 1.018-9.738 2.079-14.526 3.181-4.788 1.102-9.521 2.247-14.201 3.428-0.457 0.115-0.913 0.227-1.368 0.344-4.536 1.157-9.015 2.355-13.441 3.588-0.51 0.141-1.018 0.285-1.526 0.428-4.504 1.268-8.956 2.564-13.341 3.908-0.113 0.035-0.223 0.072-0.338 0.106-4.565 1.401-9.069 2.841-13.5 4.321-0.051 0.016-0.102 0.033-0.152 0.049-4.286 1.434-8.497 2.91-12.655 4.415-0.236 0.086-0.481 0.164-0.717 0.25h0.027c-2.945 1.071-5.845 2.169-8.722 3.277-0.883 0.34-1.751 0.684-2.626 1.028-2.034 0.797-4.051 1.602-6.050 2.415-0.934 0.381-1.864 0.762-2.789 1.147-2.079 0.862-4.133 1.737-6.171 2.617-0.711 0.307-1.432 0.612-2.136 0.922-2.753 1.208-5.474 2.431-8.149 3.672-0.197 0.090-0.387 0.184-0.584 0.276-2.464 1.149-4.891 2.312-7.287 3.49-0.676 0.332-1.341 0.668-2.011 1.001-1.972 0.983-3.924 1.974-5.847 2.976-0.653 0.34-1.307 0.678-1.954 1.020-2.214 1.169-4.397 2.349-6.547 3.541-0.254 0.141-0.512 0.279-0.766 0.42-2.537 1.417-5.030 2.851-7.475 4.303-0.070 0.043-0.137 0.084-0.209 0.127-2.279 1.356-4.514 2.728-6.711 4.112-0.403 0.254-0.801 0.51-1.2 0.764-1.96 1.247-3.887 2.507-5.779 3.779-0.322 0.215-0.645 0.428-0.965 0.645-6.685 4.53-12.935 9.202-18.729 14.002-0.203 0.168-0.403 0.336-0.604 0.504-1.815 1.516-3.586 3.041-5.306 4.581-0.088 0.080-0.178 0.158-0.266 0.236-3.729 3.346-7.242 6.75-10.523 10.209-1.79 1.886-3.506 3.793-5.159 5.712-0.090 0.104-0.182 0.209-0.272 0.313-0.068 0.078-0.135 0.156-0.203 0.233-0.731 0.856-1.446 1.718-2.15 2.583-0.059 0.074-0.119 0.145-0.176 0.219-0.207 0.256-0.414 0.512-0.618 0.768-1.036 1.294-2.040 2.595-3.013 3.901-0.010 0.014-0.020 0.029-0.031 0.043-0.973 1.309-1.915 2.623-2.824 3.944-0.336 0.487-0.674 0.975-0.999 1.462-0.479 0.717-0.948 1.434-1.407 2.154-0.387 0.606-0.764 1.214-1.137 1.825-0.401 0.653-0.807 1.305-1.192 1.96-0.535 0.909-1.040 1.825-1.544 2.738-0.133 0.242-0.276 0.481-0.408 0.725-0.303 0.561-0.59 1.126-0.883 1.69-0.111 0.213-0.213 0.426-0.324 0.641-0.295 0.578-0.594 1.155-0.877 1.737-0.262 0.541-0.522 1.081-0.776 1.622-0.084 0.178-0.16 0.36-0.242 0.541-0.362 0.791-0.721 1.579-1.061 2.374-0.152 0.352-0.315 0.705-0.463 1.059-0.391 0.94-0.743 1.886-1.1 2.83-0.139 0.367-0.293 0.731-0.426 1.098-0.154 0.418-0.295 0.838-0.44 1.257-0.348 0.997-0.682 1.999-0.993 3-0.131 0.418-0.262 0.836-0.387 1.253-0.408 1.372-0.793 2.75-1.133 4.133l-2.527-0v-122.88c0-1.442 0.045-2.877 0.119-4.309 0.023-0.459 0.063-0.913 0.094-1.368zM1020.289-48.983l-112.39 112.388c-0.006-0.008-0.014-0.016-0.020-0.027 35.553 46.27 56.705 104.184 56.705 167.045 0 151.562-122.868 274.432-274.432 274.432-151.568 0-274.434-122.868-274.434-274.432 0-151.564 122.866-274.432 274.434-274.432 50.145 0 97.147 13.459 137.601 36.952l117.232-117.232c5.708-5.712 15.956-4.721 22.888 2.212l50.205 50.201c6.932 6.932 7.922 17.181 2.212 22.893zM479.67 230.425c0 116.244 94.239 210.481 210.483 210.481 116.24 0 210.479-94.237 210.479-210.481s-94.241-210.479-210.479-210.479c-116.244-0.002-210.483 94.235-210.483 210.479zM903.764 58.153c-0.010-0.012-0.020-0.025-0.031-0.037 0.010 0.012 0.020 0.025 0.031 0.037zM833.661-3.524c-0.049-0.033-0.1-0.063-0.15-0.096 0.049 0.033 0.098 0.066 0.15 0.096zM839.178-0.042c0.084 0.053 0.168 0.111 0.252 0.166-0.084-0.055-0.168-0.111-0.252-0.166zM844.761 3.673c0.1 0.070 0.201 0.139 0.299 0.209-0.098-0.070-0.199-0.139-0.299-0.209zM850.25 7.525c0.109 0.076 0.215 0.156 0.326 0.236-0.109-0.080-0.217-0.16-0.326-0.236zM855.642 11.504c0.113 0.084 0.223 0.172 0.336 0.256-0.113-0.084-0.223-0.172-0.336-0.256zM860.946 15.625c0.1 0.078 0.197 0.158 0.297 0.236-0.102-0.078-0.197-0.158-0.297-0.236zM866.142 19.864c0.092 0.076 0.182 0.156 0.274 0.231-0.092-0.076-0.182-0.156-0.274-0.231zM871.242 24.239c0.074 0.066 0.147 0.133 0.223 0.199-0.076-0.066-0.15-0.133-0.223-0.199zM876.235 28.736c0.055 0.051 0.115 0.109 0.172 0.16-0.059-0.051-0.117-0.106-0.172-0.16zM881.113 33.352c0.043 0.043 0.084 0.084 0.127 0.125-0.043-0.041-0.084-0.082-0.127-0.125zM885.879 38.085c0.033 0.033 0.061 0.063 0.092 0.096-0.031-0.033-0.061-0.066-0.092-0.096zM899.481 52.978c-0.008-0.006-0.012-0.014-0.020-0.023 0.008 0.008 0.012 0.016 0.020 0.023zM895.090 47.928c-0.012-0.012-0.023-0.025-0.033-0.037 0.010 0.014 0.020 0.025 0.033 0.037zM890.589 43c-0.020-0.025-0.043-0.047-0.063-0.070 0.020 0.023 0.045 0.045 0.063 0.070z"  horiz-adv-x="1024" />

    
    <glyph glyph-name="tongji" unicode="&#58887;" d="M0.020966 896l64.583924 0 0-1024-64.583924 0 0 1024ZM0.020966-63.473381l1023.958044 0 0-64.526619-1023.958044 0 0 64.526619ZM137.452012 796.0588c0-14.773472-14.359033-26.860764-31.907711-26.860764L38.894322 769.198036c-17.549701 0-31.907711 12.087293-31.907711 26.860764s14.358009 26.860764 31.907711 26.860764l66.648956 0C123.09298 822.919564 137.452012 810.832272 137.452012 796.0588zM137.452012 619.547691c0-14.773472-14.359033-26.860764-31.907711-26.860764L38.894322 592.686926c-17.549701 0-31.907711 12.087293-31.907711 26.860764s14.358009 26.860764 31.907711 26.860764l66.648956 0C123.09298 646.408455 137.452012 634.321162 137.452012 619.547691zM137.452012 441.501622c0-14.773472-14.359033-26.860764-31.907711-26.860764L38.894322 414.640857c-17.549701 0-31.907711 12.087293-31.907711 26.860764s14.358009 26.860764 31.907711 26.860764l66.648956 0C123.09298 468.361363 137.452012 456.27407 137.452012 441.501622zM137.452012 263.455553c0-14.773472-14.359033-26.860764-31.907711-26.860764L38.894322 236.594789c-17.549701 0-31.907711 12.088316-31.907711 26.860764s14.358009 26.860764 31.907711 26.860764l66.648956 0C123.09298 290.316317 137.452012 278.229025 137.452012 263.455553zM137.452012 86.944444c0-14.773472-14.359033-26.860764-31.907711-26.860764L38.894322 60.083679c-17.549701 0-31.907711 12.088316-31.907711 26.860764s14.358009 26.860764 31.907711 26.860764l66.648956 0C123.09298 113.805208 137.452012 101.716892 137.452012 86.944444zM218.092634 479.873558l168.837336 0 0-494.232334-168.837336 0 0 494.232334ZM496.478992 633.362324l163.66043 0 0-647.720078-163.66043 0 0 647.720078ZM767.580433 789.918963l167.302377 0 0-804.276716-167.302377 0 0 804.276716Z"  horiz-adv-x="1024" />

    
    <glyph glyph-name="riqi" unicode="&#58966;" d="M558.531758 430.561888 465.438112 430.561888 465.438112 337.468242 558.531758 337.468242 558.531758 430.561888ZM558.531758 267.655537 465.438112 267.655537 465.438112 174.561891 558.531758 174.561891 558.531758 267.655537ZM930.906341 802.906354 837.812695 802.906354 837.812695 872.719059C837.812695 885.579294 827.39199 896 814.531755 896 801.671519 896 791.280931 885.579294 791.280931 872.719059L791.280931 802.906354 232.719056 802.906354 232.719056 872.719059C232.719056 885.579294 222.29835 896 209.438115 896 196.57788 896 186.187292 885.579294 186.187292 872.719059L186.187292 802.906354 93.093646 802.906354C41.682823 802.906354 0 761.223531 0 709.812708L0 570.187298 0 523.625416 0-34.906341C0-86.317164 41.682823-127.999987 93.093646-127.999987L930.906341-127.999987C982.317164-127.999987 1023.999987-86.317164 1023.999987-34.906341L1023.999987 523.625416 1023.999987 570.187298 1023.999987 709.812708C1023.999987 761.223531 982.317164 802.906354 930.906341 802.906354ZM977.438105-34.906341C977.438105-60.596694 956.596694-81.438105 930.906341-81.438105L93.093646-81.438105C67.373176-81.438105 46.531764-60.596694 46.531764-34.906341L46.531764 523.625416 977.438105 523.625416 977.438105-34.906341ZM977.438105 570.187298 46.531764 570.187298 46.531764 709.812708C46.531764 735.533178 67.373176 756.37459 93.093646 756.37459L186.187292 756.37459 186.187292 686.561885C186.187292 673.70165 196.57788 663.280944 209.438115 663.280944 222.29835 663.280944 232.719056 673.70165 232.719056 686.561885L232.719056 756.37459 791.280931 756.37459 791.280931 686.561885C791.280931 673.70165 801.671519 663.280944 814.531755 663.280944 827.39199 663.280944 837.812695 673.70165 837.812695 686.561885L837.812695 756.37459 930.906341 756.37459C956.596694 756.37459 977.438105 735.533178 977.438105 709.812708L977.438105 570.187298ZM791.280931 267.655537 698.187285 267.655537 698.187285 174.561891 791.280931 174.561891 791.280931 267.655537ZM791.280931 430.561888 698.187285 430.561888 698.187285 337.468242 791.280931 337.468242 791.280931 430.561888ZM558.531758 104.719069 465.438112 104.719069 465.438112 11.625423 558.531758 11.625423 558.531758 104.719069ZM325.812702 104.719069 232.719056 104.719069 232.719056 11.625423 325.812702 11.625423 325.812702 104.719069ZM325.812702 430.561888 232.719056 430.561888 232.719056 337.468242 325.812702 337.468242 325.812702 430.561888ZM325.812702 267.655537 232.719056 267.655537 232.719056 174.561891 325.812702 174.561891 325.812702 267.655537Z"  horiz-adv-x="1024" />

    
    <glyph glyph-name="dashujuyuyunjisuanyingyong" unicode="&#59071;" d="M950.70890667 250.9801248l-29.10890667-130.94456853-1.01944853 0c11.83288853-11.57802667 19.22389333-27.65255147 19.22389333-45.51111147 0-35.18919147-28.5263648-63.7155552-63.7155552-63.7155552s-63.7155552 28.5263648-63.7155552 63.7155552c0 2.82168853 0.4733152 5.53415147 0.8374048 8.26481813l-80.20878187 80.20878187c-9.12042667-4.13240853-19.1874848-6.5536-29.85528853-6.5536-40.21361813 0-72.81777813 32.60416-72.81777813 72.81777813s32.60416 72.81777813 72.81777813 72.81777814c23.46552853 0 44.10936853-11.2867552 57.43502187-28.5263648l106.6416352 39.9951648c1.27431147 34.0605152 29.09070187 61.34897813 63.47889813 61.34897813 35.18919147 0 63.7155552-28.5263648 63.7155552-63.7155552C994.41777813 283.01994666999997 976.03128853 259.40878187 950.70890667 250.9801248zM876.08888853 47.217778130000056c15.07328 0 27.30666667 12.21518187 27.30666667 27.30666667s-12.23338667 27.30666667-27.30666667 27.30666667c-12.39722667 0-23.59296-8.13738667-25.77749333-19.73361814-2.29376-12.12416 0.3094752-16.67527147 0.3094752-16.67527146C854.38919147 54.863644799999975 864.2377952 47.217778130000056 876.08888853 47.217778130000056zM703.14666667 265.67111147c-20.11591147 0-36.40888853-16.29297813-36.40888854-36.40888854 0-20.09770667 16.29297813-36.40888853 36.40888854-36.40888853s36.40888853 16.31118187 36.40888853 36.40888853C739.5555552 249.37813332999997 723.26257813 265.67111147 703.14666667 265.67111147zM875.2150752 280.12544l-100.5795552-37.7014048c0.78279147-4.29624853 1.3289248-8.6653152 1.3289248-13.16181333 0-20.11591147-8.15559147-38.3203552-21.33560853-51.48216854l68.28487146-68.28487146c11.37777813 17.29422187 30.92935147 28.74481813 53.17518187 28.74481813 4.4054752 0 8.7017248-0.45511147 12.85233813-1.2925152l25.12213334 112.99498667C897.42449813 254.45717333000005 883.49809813 265.48906667000006 875.2150752 280.12544zM930.70222187 338.48888853000005c-15.07328 0-27.30666667-12.21518187-27.30666667-27.30666666 0-15.07328 12.23338667-27.30666667 27.30666667-27.30666667s27.30666667 12.23338667 27.30666666 27.30666667C958.00888853 326.27370667 945.77550187 338.48888853000005 930.70222187 338.48888853000005zM303.5773152 447.7155552c9.3570848 132.21888 119.33013333 236.65777813 253.9337952 236.65777813l0-18.2044448c-124.55480853 0-227.33710187-96.28330667-236.65777813-218.45333333L303.5773152 447.7155552zM846.27000853 393.10222187c1.4927648 11.96032 2.51221333 24.04807147 2.51221334 36.40888853 0 160.8726752-130.3984352 291.27111147-291.27111147 291.27111147-142.14030187 0-260.05048853-101.96309333-285.66414187-236.65777814l-7.8825248-53.84874666-15.92888853-0.76458667c-100.54314667 0-182.0444448-69.26791147-182.0444448-154.73777813 0-85.45166187 81.50129813-154.73777813 182.0444448-154.73777814l491.52 0 0-36.40888853-491.52 0c-120.64085333 0-218.45333333 85.57909333-218.45333333 191.14666667 0 100.7798048 89.20177813 183.1549152 202.26958186 190.43669333 17.80394667 164.1494752 156.75847147 291.9810848 325.65930667 291.9810848 180.97038187 0 327.68-146.70961813 327.68-327.68 0-12.32440853-0.8009952-24.44856853-2.12992-36.40888853L846.27000853 393.10222187z"  horiz-adv-x="1024" />

    
    <glyph glyph-name="tongji1" unicode="&#58888;" d="M1024.073143 0.365714C1024.073143-70.192762 972.946286-128 902.339048-128L122.148571-128C51.541333-128-0.024381-70.192762-0.024381 0.365714L-0.024381 768.390095C-0.024381 838.972952 51.541333 896 122.148571 896L902.339048 896C972.946286 896 1024.24381 844.678095 1024.24381 774.095238L1024.073143 0.365714ZM268.434286 380.562286 268.434286 749.714286C268.434286 763.172571 257.511619 774.095238 244.053333 774.095238 230.595048 774.095238 219.672381 763.172571 219.672381 749.714286L219.672381 380.562286C177.688381 369.664 146.529524 331.873524 146.529524 286.47619 146.529524 241.078857 177.688381 203.288381 219.672381 192.390095L219.672381 18.285714C219.672381 4.827429 230.595048-6.095238 244.053333-6.095238 257.511619-6.095238 268.434286 4.827429 268.434286 18.285714L268.434286 192.390095C310.418286 203.288381 341.577143 241.078857 341.577143 286.47619 341.577143 331.873524 310.418286 369.664 268.434286 380.562286ZM536.624762 624.37181 536.624762 749.714286C536.624762 763.172571 525.702095 774.095238 512.24381 774.095238 498.785524 774.095238 487.862857 763.172571 487.862857 749.714286L487.862857 624.37181C445.878857 613.473524 414.72 575.683048 414.72 530.285714 414.72 484.888381 445.878857 447.097905 487.862857 436.199619L487.862857 18.285714C487.862857 4.827429 498.785524-6.095238 512.24381-6.095238 525.702095-6.095238 536.624762 4.827429 536.624762 18.285714L536.624762 436.199619C578.608762 447.097905 609.767619 484.888381 609.767619 530.285714 609.767619 575.683048 578.608762 613.473524 536.624762 624.37181ZM804.815238 283.038476 804.815238 749.714286C804.815238 763.172571 793.892571 774.095238 780.434286 774.095238 766.976 774.095238 756.053333 763.172571 756.053333 749.714286L756.053333 283.038476C714.069333 272.14019 682.910476 234.349714 682.910476 188.952381 682.910476 143.555048 714.069333 105.764571 756.053333 94.866286L756.053333 18.285714C756.053333 4.827429 766.976-6.095238 780.434286-6.095238 793.892571-6.095238 804.815238 4.827429 804.815238 18.285714L804.815238 94.866286C846.799238 105.764571 877.958095 143.555048 877.958095 188.952381 877.958095 234.349714 846.799238 272.14019 804.815238 283.038476ZM780.434286 140.190476C753.493333 140.190476 731.672381 162.011429 731.672381 188.952381 731.672381 215.893333 753.493333 237.714286 780.434286 237.714286 807.375238 237.714286 829.19619 215.893333 829.19619 188.952381 829.19619 162.011429 807.375238 140.190476 780.434286 140.190476ZM512.24381 481.52381C485.302857 481.52381 463.481905 503.344762 463.481905 530.285714 463.481905 557.226667 485.302857 579.047619 512.24381 579.047619 539.184762 579.047619 561.005714 557.226667 561.005714 530.285714 561.005714 503.344762 539.184762 481.52381 512.24381 481.52381ZM244.053333 237.714286C217.112381 237.714286 195.291429 259.535238 195.291429 286.47619 195.291429 313.417143 217.112381 335.238095 244.053333 335.238095 270.994286 335.238095 292.815238 313.417143 292.815238 286.47619 292.815238 259.535238 270.994286 237.714286 244.053333 237.714286Z"  horiz-adv-x="1025" />

    
    <glyph glyph-name="xiangxiajiantou01" unicode="&#58882;" d="M512.00307-68.801736 30.363542 774.050554l963.272917 0L512.00307-68.801736z"  horiz-adv-x="1024" />

    
    <glyph glyph-name="jinggao" unicode="&#59147;" d="M847.470983-31.382499 175.471942-31.382499c-45.064358 0-81.264838 17.804505-99.345636 48.855708-18.08489 31.051203-15.881712 71.609944 6.058996 111.24464L421.247578 741.090884c22.066575 39.924291 54.888098 62.806441 90.000803 62.806441 35.117822 0 67.904553-22.854521 90.036619-62.742996l339.41327-612.500948c21.939685-39.632649 24.207331-80.163761 6.090718-111.209848C928.735821-13.606647 892.506688-31.382499 847.470983-31.382499M511.281127 739.6163c-11.161201 0-23.953551-11.151991-34.319643-29.828352L137.905348 97.346351c-10.624988-19.218714-13.109576-36.483936-6.764054-47.37396 6.349615-10.868535 22.517853-17.104563 44.330648-17.104563l671.999041 0c21.849634 0 37.989219 6.204305 44.334741 17.104563 6.308683 10.862395 3.855818 28.120454-6.7968 47.344285L545.601794 709.787948C535.263331 728.464309 522.413676 739.6163 511.281127 739.6163M511.470439 258.602012c-17.60189 0-31.889291 14.370289-31.889291 32.145118L479.581148 580.026582c0 17.743106 14.287401 32.146141 31.889291 32.146141 17.607006 0 31.895431-14.403035 31.895431-32.146141l0-289.279453C543.36587 272.972301 529.077445 258.602012 511.470439 258.602012M511.242242 101.490741c27.449165 0 49.698912 22.461571 49.698912 50.16861 0 27.714202-22.249747 50.170656-49.698912 50.170656-27.440979 0-49.691749-22.456455-49.691749-50.170656C461.550493 123.952312 483.801263 101.490741 511.242242 101.490741"  horiz-adv-x="1024" />

    
    <glyph glyph-name="module4mokuai" unicode="&#58897;" d="M947.642393-126.874838 76.357607-126.874838c-22.094096 0-40.198981 7.160124-54.416941 21.275797C7.620418-91.381081 0.562581-73.276196 0.562581-51.079812L0.562581 820.204975c0 22.094096 7.057836 40.301269 21.275797 54.416941C36.056338 888.942164 54.26351 896 76.357607 896l871.387074 0c22.094096 0 40.198981-7.057836 54.416941-21.275797C1016.379582 860.506243 1023.437419 842.299071 1023.437419 820.204975l0-871.387074c0-22.094096-7.057836-40.198981-21.275797-54.416941C987.943662-119.714714 969.73649-126.874838 947.642393-126.874838zM76.357607 858.153631c-25.265008 0-37.846369-12.683648-37.846369-37.846369l0-871.387074c0-25.265008 12.581361-37.846369 37.846369-37.846369l871.387074 0c25.265008 0 37.846369 12.581361 37.846369 37.846369L985.59105 820.204975c0 25.265008-12.581361 37.846369-37.846369 37.846369L76.357607 858.051344zM890.87284 668.717211 796.15463 668.717211 796.15463 725.486765c0 12.581361-6.341824 18.923184-18.923184 18.923184L587.795025 744.409949c-12.581361 0-18.923184-6.341824-18.923184-18.923184l0-56.871841L133.12716 668.614924c-12.581361 0-18.923184-6.341824-18.923184-18.923184 0-12.683648 6.341824-18.923184 18.923184-18.923184l435.642393 0 0-56.871841c0-12.683648 6.341824-18.923184 18.923184-18.923184l189.43642 0c12.581361 0 18.923184 6.239537 18.923184 18.923184L796.052342 630.768555l94.71821 0c12.581361 0 18.923184 6.239537 18.923184 18.923184C909.796024 662.375387 903.4542 668.717211 890.87284 668.717211zM890.87284 403.485766 455.128159 403.485766 455.128159 460.357607c0 12.581361-6.341824 18.923184-18.923184 18.923184L246.768555 479.280791c-12.581361 0-18.923184-6.341824-18.923184-18.923184l0-56.871841L133.12716 403.485766C120.5458 403.485766 114.203976 397.143942 114.203976 384.562581c0-12.683648 6.341824-18.923184 18.923184-18.923184l94.71821 0 0-56.871841c0-12.683648 6.341824-18.923184 18.923184-18.923184l189.43642 0c12.581361 0 18.923184 6.239537 18.923184 18.923184L455.128159 365.639397l435.642393 0c12.581361 0 18.923184 6.239537 18.923184 18.923184C909.796024 397.143942 903.4542 403.485766 890.87284 403.485766zM890.87284 138.356608 644.564579 138.356608 644.564579 195.126161c0 12.581361-6.341824 18.923184-18.923184 18.923184L436.204975 214.049346c-12.581361 0-18.923184-6.341824-18.923184-18.923184l0-56.871841L133.12716 138.25432c-12.581361 0-18.923184-6.341824-18.923184-18.923184 0-12.683648 6.341824-18.923184 18.923184-18.923184l284.15463 0 0-56.871841c0-12.683648 6.341824-18.923184 18.923184-18.923184l189.43642 0c12.581361 0 18.923184 6.239537 18.923184 18.923184L644.564579 100.407951l246.205973 0c12.581361 0 18.923184 6.239537 18.923184 18.923184C909.796024 132.014784 903.4542 138.356608 890.87284 138.356608zM417.28179 327.69074 265.794027 327.69074 265.794027 441.434422l151.487763 0L417.28179 327.69074zM606.71821 62.561582 455.128159 62.561582 455.128159 176.202977l151.487763 0L606.615922 62.561582zM758.205973 592.922186 606.71821 592.922186 606.71821 706.56358l151.487763 0L758.205973 592.922186z"  horiz-adv-x="1024" />

    
    <glyph glyph-name="fabus" unicode="&#58955;" d="M793.187659-62.180945l-574.913888 0c-52.875255 0-95.819322 42.944068-95.819322 95.819322L122.454448 672.278659c0 52.875255 42.944068 95.783507 95.819322 95.783507l447.036429 0c17.673521 0 31.952736-14.243399 31.952736-31.915897 0-17.672498-14.279215-31.951713-31.952736-31.951713L218.27377 704.194556c-17.531282 0-31.951713-14.385639-31.951713-31.915897l0-638.640282c0-17.70729 14.420431-31.951713 31.951713-31.951713L793.045419 1.686664c17.673521 0 31.915897 14.244422 31.915897 31.951713L824.961316 544.719448c0 17.672498 14.243399 31.915897 31.915897 31.915897 17.70729 0 31.951713-14.243399 31.951713-31.915897l0-510.905062C889.006981-19.094638 845.920674-62.180945 793.187659-62.180945L793.187659-62.180945zM793.187659-62.180945M605.578794 448.935941c-8.270361 0-16.328897 3.075035-22.690792 9.43693-12.512988 12.511965-12.512988 32.623002 0 45.134966L900.352377 820.796204c12.511965 12.511965 32.588209 12.511965 45.133943 0 12.547781-12.546757 12.547781-32.623002 0-45.169759L628.057761 458.196863C621.872898 452.010977 613.63733 448.935941 605.578794 448.935941L605.578794 448.935941zM605.578794 448.935941M473.708394 448.935941 282.106588 448.935941c-17.672498 0-31.915897 14.243399-31.915897 31.915897 0 17.672498 14.243399 31.951713 31.915897 31.951713l191.602829 0c17.70729 0 31.915897-14.279215 31.915897-31.951713C505.624291 463.180364 491.416707 448.935941 473.708394 448.935941L473.708394 448.935941zM473.708394 448.935941M665.488255 257.334135l-383.381667 0c-17.672498 0-31.915897 14.244422-31.915897 31.915897 0 17.70729 14.243399 31.951713 31.915897 31.951713l383.204635 0c17.673521 0 31.952736-14.244422 31.952736-31.951713C697.262936 271.578558 682.983721 257.334135 665.488255 257.334135L665.488255 257.334135zM665.488255 257.334135"  horiz-adv-x="1024" />

    
    <glyph glyph-name="charumokuai" unicode="&#58898;" d="M814.466288 496.410186l170.683381 170.682357L793.958208 858.281957 623.275851 687.601646 511.237125 799.633209l0-415.259702 415.270958 0L814.466288 496.410186zM540.244786 729.609389l83.032088-83.025948L793.958208 817.263751l150.171208-150.172231L773.447059 496.410186l83.033112-83.032088L540.244786 413.378098 540.244786 729.609389zM200.570573 145.161357l601.574085 0 0-29.006637-601.574085 0 0 29.006637ZM200.570573 291.464467l601.574085 0 0-29.008684-601.574085 0 0 29.008684ZM200.570573 510.913505l211.443713 0 0-29.005614-211.443713 0 0 29.005614ZM901.421732 107.717559c-0.874927-5.832845-9.847276-61.588707-37.099966-94.288456-22.298865-26.756387-62.494333-36.987403-71.291696-38.953174l-582.629617-0.072655c-5.314029 0.955768-47.189765 9.243525-70.183456 36.81651-26.160823 31.403221-36.902468 84.897575-38.870286 95.810113L101.346711 642.573103c0.031722 1.660826 1.221828 51.603285 22.602787 90.706885 21.48636 39.292911 91.013877 41.283242 104.734366 41.283242 2.163269 0 232.099149-0.062422 232.099149-0.062422L460.783013 803.506423c0 0-231.79625 0.103354-233.366002 0.103354-23.008017 0-100.30038-4.067642-128.910998-56.414871-25.281803-46.217624-26.14138-102.048187-26.164916-104.487749l0.073678-537.999141 0.094144-0.61603c0.433882-2.844791 11.035334-70.15378 45.428655-111.446231 32.788777-39.320541 89.201601-47.033199 89.768513-47.105854l0.523933-0.069585 587.514881 0.099261 0.684592 0.116657c2.342348 0.401136 57.749262 10.257621 90.182952 49.16577 35.166941 42.207287 43.621497 109.772103 43.703361 110.450555l0.058328 0.48607L930.374134 309.522752l-29.006637 0L901.421732 107.717559z"  horiz-adv-x="1024" />

    
    <glyph glyph-name="qingchuhuancun" unicode="&#58899;" d="M880.710063 348.700277l-15.689363 0 0-239.265178c0-69.826458 15.689363-129.445836 15.689363-129.445836 0-17.2563-14.120426-31.38672-31.383522-31.38672L174.657566-51.397457c-17.254302 0-31.370131 14.13042-31.370131 31.38672 0 0 15.689363 57.264974 15.689363 126.307963L158.976798 348.700277l-15.689363 0c-17.263295 0-31.379725 14.124424-31.379725 31.38712l0 156.892627c0 17.258299 14.116429 31.383722 31.379725 31.383722L410.011996 568.363745 410.011996 740.949732c0 43.147146 35.303065 78.45061 78.457206 78.45061l47.063891 0c43.149744 0 78.448612-35.303464 78.448612-78.45061l0-172.585987 266.728358 0c17.263295 0 31.378725-14.116429 31.378725-31.383722l0-156.901221C912.088788 362.824501 897.969361 348.700277 880.710063 348.700277L880.710063 348.700277 880.710063 348.700277 880.710063 348.700277zM339.403468-20.010937 339.403468 187.883511c0 6.275745 5.502669 11.760027 11.769021 11.760027l7.841683 0c6.284139 0 11.777415-5.484282 11.777415-11.760027l0-207.894448 133.36278 0L504.154367 187.883511c0 6.275745 5.493276 11.760027 11.764024 11.760027l7.836687 0c6.284739 0 11.778015-5.484282 11.778015-11.760027l0-207.894448 125.513502 0L661.046594 187.883511c0 6.275745 5.493276 11.760027 11.765023 11.760027l7.848679 0c6.275745 0 11.765023-5.484282 11.765023-11.760027l0-207.894448 156.901221 0c0 0-15.681368 56.481506-15.681368 126.307963L833.645173 348.700277 190.355923 348.700277l0-242.403051c0-69.826458-15.698357-126.307963-15.698357-126.307963L339.403468-20.010737 339.403468-20.010937 339.403468-20.010937 339.403468-20.010937zM880.710063 521.294658c0 8.631148-7.058215 15.685365-15.689363 15.685365L582.60198 536.980024 582.60198 733.104651c0 30.595256-24.320511 54.91217-54.917566 54.91217l-31.375128 0c-30.597255 0-54.918565-24.316913-54.918565-54.91217l0-196.124628L158.976798 536.980024c-8.635545 0-15.69376-7.054217-15.69376-15.685365l0-125.517699c0-8.636145 7.058215-15.698357 15.69376-15.698357l31.379125 0 643.285253 0 31.379725 0c8.631148 0 15.689363 7.062212 15.689363 15.698357L880.710262 521.294658 880.710063 521.294658 880.710063 521.294658 880.710063 521.294658zM880.710063 348.700277l-15.689363 0 0-239.265178c0-69.826458 15.689363-129.445836 15.689363-129.445836 0-17.2563-14.120426-31.38672-31.383522-31.38672L174.657566-51.397457c-17.254302 0-31.370131 14.13042-31.370131 31.38672 0 0 15.689363 57.264974 15.689363 126.307963L158.976798 348.700277l-15.689363 0c-17.263295 0-31.379725 14.124424-31.379725 31.38712l0 156.892627c0 17.258299 14.116429 31.383722 31.379725 31.383722L410.011996 568.363745 410.011996 740.949732c0 43.147146 35.303065 78.45061 78.457206 78.45061l47.063891 0c43.149744 0 78.448612-35.303464 78.448612-78.45061l0-172.585987 266.728358 0c17.263295 0 31.378725-14.116429 31.378725-31.383722l0-156.901221C912.088788 362.824501 897.969361 348.700277 880.710063 348.700277L880.710063 348.700277 880.710063 348.700277 880.710063 348.700277zM339.403468-9.933769l0 197.81748c0 6.275745 5.502669 11.760027 11.769021 11.760027l7.841683 0c6.284139 0 11.777415-5.484282 11.777415-11.760027l0-197.81748 133.36278 0 0 197.81748c0 6.275745 5.493276 11.760027 11.764024 11.760027l7.836687 0c6.284739 0 11.778015-5.484282 11.778015-11.760027l0-197.81748 125.513502 0 0 197.81748c0 6.275745 5.493276 11.760027 11.765023 11.760027l7.848679 0c6.275745 0 11.765023-5.484282 11.765023-11.760027l0-197.81748 146.833047 0c0 0-15.690362 46.404538-15.690362 116.230995L823.568005 348.700277l-623.143509 0 0-242.403051c0-69.826458-15.689363-116.230995-15.689363-116.230995L339.403468-9.933769l0-10.076968L339.403468-9.933769 339.403468-9.933769zM870.636892 511.221488c0 8.631148-7.057215 15.685765-15.689363 15.685765L572.524812 526.907253 572.524812 733.104651c0 30.595256-24.316513 44.841398-54.909571 44.841398l-11.23838 0c-30.591659 0-54.917566-14.246341-54.917566-44.841398l0-206.197198L169.044972 526.907453c-8.631148 0-15.689363-7.054617-15.689363-15.685765l0-105.376355c0-8.631148 7.058215-15.689762 15.689363-15.689762l31.379725 0 623.143509 0 31.379725 0c8.632147 0 15.689363 7.058614 15.689363 15.689762L870.637292 511.221488l10.07317 0L870.636892 511.221488 870.636892 511.221488z"  horiz-adv-x="1024" />

    
    <glyph glyph-name="xinxi" unicode="&#58971;" d="M979.126-66v53.371h239.6c10.256 0 18.562 8.362 18.562 18.615v756.025c0 10.256-8.306 18.586-18.562 18.586h-559.049v53.402h559.049c39.623 0 71.932-32.289 71.932-71.989v-756.025c0-39.705-32.308-71.987-71.932-71.987h-239.6zM794.375-58.772v2.733c0 180-146.42 326.42-326.445 326.42-179.967 0-326.412-146.42-326.412-326.42v-2.733h-58.183v2.733c0 172.321 114.946 323.21 280.559 369.829-97.909 41.566-163.137 139.293-163.137 245.775 0 147.316 119.835 267.175 267.15 267.175 147.316 0 267.152-119.859 267.152-267.175 0-106.482-65.229-204.209-163.137-245.775 165.613-46.619 280.509-197.533 280.559-369.829v-2.733h-58.103zM467.93 768.614c-115.235 0-208.99-93.758-208.99-209.001 0-115.265 93.727-208.99 208.99-208.99s208.998 93.702 208.998 208.99c0 115.215-93.733 209.001-208.998 209.001v0zM870.907 263.465v60.127h281.117v-60.127h-281.117zM772.423 445.138v60.052h379.677v-60.052h-379.677zM772.423 615.568v60.051h379.677v-60.051h-379.677zM772.423 615.568z"  horiz-adv-x="1374" />

    
    <glyph glyph-name="yingyong-copy" unicode="&#58884;" d="M332.761 824.507h-187.079c-61.99 0-112.339-50.409-112.339-112.555v-187.618c0-62.145 38.125-114.391 100.116-114.391h200.23c62.055 0 114.417 52.273 114.417 114.417v185.927c0 62.145-53.289 114.221-115.344 114.221zM405.198 524.359c0 0-16.75-71.511-71.509-71.511h-200.23c-20.597 0-57.209 50.861-57.209 71.511v185.927c0 46.167 30.798 71.509 71.511 71.509h185.927c47.024 0 71.509-27.104 71.509-71.511v-185.927zM332.761 323.933h-187.079c-61.99 0-112.339-50.409-112.339-112.555v-187.618c0-62.145 38.125-114.391 100.116-114.391h200.23c62.055 0 114.417 52.273 114.417 114.417v185.925c0 62.146-53.289 114.222-115.344 114.222zM405.198 23.785c0 0-16.75-71.511-71.509-71.511h-200.23c-20.597 0-57.209 50.861-57.209 71.511v185.927c0 46.167 30.798 71.511 71.511 71.511h185.927c47.024 0 71.509-27.104 71.509-71.511v-185.927zM833.333 323.933h-187.077c-61.99 0-112.339-50.409-112.339-112.555v-187.618c0-62.145 38.125-114.391 100.116-114.391h200.23c62.055 0 114.417 52.273 114.417 114.417v185.925c-0.001 62.146-53.29 114.222-115.344 114.222zM905.773 23.785c0 0-16.75-71.511-71.509-71.511h-200.23c-20.601 0-57.209 50.861-57.209 71.511v185.927c0 46.167 30.798 71.511 71.511 71.511h185.927c47.024 0 71.509-27.104 71.509-71.511v-185.927zM953.673 698.227l-131.471 131.469c-43.945 43.945-118.446 43.087-162.327-0.793l-132.285-132.287c-43.834-43.834-43.792-115.081 0.153-159.023l132.666-132.667c43.941-43.943 107.846-53.929 151.679-10.096l141.583 141.582c43.881 43.883 43.943 117.869 0.001 161.812zM923.333 566.756l-141.584-141.583c-14.564-14.565-76.415-4.49-91.017 10.111l-131.471 131.471c-32.644 32.644-28.789 72.341 0 101.131l131.471 131.471c33.251 33.251 69.731 31.399 101.127 0l131.471-131.469c0.001-0.001 38.721-62.41 0.001-101.131z"  horiz-adv-x="1024" />

    
    <glyph glyph-name="xiangmu" unicode="&#59081;" d="M815.51872 426.28608 397.056 426.28608c-12.65152 0-22.9632-10.368-22.9632-23.07584 0-12.67712 10.31168-22.9632 22.9632-22.9632l418.4576 0c12.65152 0 22.9632 10.31168 22.9632 22.9632C838.50752 415.91808 828.16512 426.28608 815.51872 426.28608zM815.51872 233.23648 397.056 233.23648c-12.65152 0-22.9632-10.368-22.9632-23.07584 0-12.67712 10.31168-22.9632 22.9632-22.9632l418.4576 0c12.65152 0 22.9632 10.31168 22.9632 22.9632C838.50752 222.86848 828.16512 233.23648 815.51872 233.23648zM936.27904 678.05184l-299.79648 0-5.35552 14.8736c-35.97824 99.56352-104.49408 123.08992-155.60192 125.2864L87.46496 818.21184c-32.82432 0-59.53024-26.39872-59.53024-58.8544l0-735.92832c0-32.45568 26.71104-58.8544 59.53024-58.8544l848.8448 0c32.8192 0 59.53024 26.39872 59.53024 58.8544L995.84 619.19744C995.80928 651.65312 969.10336 678.05184 936.27904 678.05184zM72.3456 731.17696c0 45.76768 16.64512 39.31136 85.77536 39.31136l247.1936 0c104.75008 0 132.01408-22.54336 152.18176-57.62048l15.0272-34.92864L72.448 677.9392 72.3456 731.17696zM947.40992 81.664c0-68.65408-24.17152-69.47328-81.89952-69.47328L158.12608 12.19072c-70.58944 0-81.93024 5.8112-81.93024 81.31072L76.19584 630.3232l803.97824 0c74.89536 0 67.26656-29.38368 67.26656-81.31072l0-455.51104C947.44064 93.50144 947.40992 81.664 947.40992 81.664zM183.13216 442.89536l74.97216 0 0-74.97216-74.97216 0 0 74.97216ZM183.13216 247.96672l74.97216 0 0-74.97216-74.97216 0 0 74.97216Z"  horiz-adv-x="1024" />

    
    <glyph glyph-name="huanfu1" unicode="&#59144;" d="M1004.24704 452.62848 866.85696 331.4176c-15.28832-13.50656-36.096-15.86176-53.84192-8.84736l0-3.56352 0-314.10176c0-43.34592-35.15392-78.53056-78.53056-78.53056L289.50528-73.6256c-43.3664 0-78.52032 35.1744-78.52032 78.53056L210.98496 319.00672l0 4.92544c-17.98144-8.1408-39.65952-5.7344-55.33696 8.32512L19.57888 454.0416c-21.46304 19.21024-23.5008 52.45952-4.57728 74.22976L272.26112 828.40576c4.94592 5.70368 10.93632 9.63584 17.32608 12.41088 0 0.28672-0.03072 0.54272-0.03072 0.80896l53.7088 0c7.19872-87.32672 79.54432-156.19072 168.72448-156.19072 89.18016 0 161.52576 68.864 168.72448 156.19072l53.7088 0-0.0512-1.75104c5.43744-2.72384 10.36288-9.73824 14.71488-14.66368l259.75808-298.71104C1027.98336 504.85248 1025.92512 471.78752 1004.24704 452.62848L1004.24704 452.62848zM963.80928 515.84 726.3232 785.00864C701.2864 697.344 620.77952 633.10848 525.08672 633.10848l-26.17344 0c-97.45408 0-179.11808 66.67264-202.46528 156.78464L59.60704 517.60128c-9.45152-10.89536-8.42752-27.51488 2.304-37.12l114.2784-102.92224c10.15808-9.1136 25.15968-8.32512 34.78528 0.91136l0 45.2608c0 14.46912 11.69408 26.17344 26.17344 26.17344 10.41408 0 19.24096-6.20544 23.4496-15.02208l2.72384-11.15136 0 0 0-47.09376 0-57.62048 0-52.34688 0-235.58144c0-28.89728 23.4496-52.35712 52.34688-52.35712l392.63232 0c28.89728 0 52.35712 23.45984 52.35712 52.35712L760.65792 266.68032l0 52.34688 0 53.61664 0 51.0976 0 0 1.61792 8.1408c3.45088 10.3936 12.9536 18.03264 24.55552 18.03264 14.46912 0 26.18368-11.70432 26.18368-26.17344l0-47.90272c9.728-7.50592 23.48032-7.79264 33.05472 0.63488l115.43552 102.42048C972.3392 488.46848 973.3632 505.00608 963.80928 515.84L963.80928 515.84zM963.80928 515.84"  horiz-adv-x="1024" />

    
    <glyph glyph-name="androidarrowdropdown" unicode="&#58908;" d="M256 512 512 256 768 512Z"  horiz-adv-x="1024" />

    
    <glyph glyph-name="androidarrowdropleft" unicode="&#58911;" d="M640 640 384 384 640 128Z"  horiz-adv-x="1024" />

    
    <glyph glyph-name="androidarrowdropright" unicode="&#58912;" d="M384 640 640 384 384 128Z"  horiz-adv-x="1024" />

    
    <glyph glyph-name="androidarrowdropup" unicode="&#58915;" d="M256 256 512 512 768 256Z"  horiz-adv-x="1024" />

    
    <glyph glyph-name="androidmorevertical" unicode="&#58984;" d="M592 624c0 44.004-35.996 80-80 80s-80-35.996-80-80 35.996-80 80-80S592 579.996 592 624zM592 144c0 44.004-35.996 80-80 80s-80-35.996-80-80 35.996-80 80-80S592 99.996 592 144zM592 384c0 44.004-35.996 80-80 80s-80-35.996-80-80 35.996-80 80-80S592 339.996 592 384z"  horiz-adv-x="1024" />

    
    <glyph glyph-name="daibanmoren" unicode="&#59098;" d="M879.917464 327.075523c-13.625322 6.993275-26.889417 13.802354-40.619116 20.849864 0 1.37123 0 3.501754 0 5.631254 0 118.108978 0.14224 236.217956-0.132006 354.326934-0.049119 21.233604-6.77224 40.405245-21.663392 56.407708-15.106046 16.232706-33.17968 25.740244-55.465243 26.693965-11.32493 0.485047-22.660092 1.038656-33.991162 1.042749-179.568748 0.064468-359.136473 0.101307-538.705222-0.014326-26.589588-0.017396-49.567929-9.309016-66.773799-30.070876-11.632945-14.036691-18.687618-30.280654-18.688641-48.960085-0.010233-219.116463 0.036839-438.231903-0.082888-657.348366-0.010233-18.671245 5.996574-34.94079 17.057491-49.594535 12.481266-16.535605 29.658484-25.673729 49.360198-30.464849 4.389984-1.067308 9.091052-1.184989 13.649881-1.187035 137.704269-0.058328 275.40956-0.065492 413.113829 0.029676 4.596691 0.00307 7.92653-1.385557 11.247158-4.561899 14.147208-13.530155 30.578436-23.827685 47.860031-32.843012 1.6158-0.843204 3.244904-1.659803 4.64888-3.292999-2.064009 0-4.129041 0-6.193049 0-159.082158 0-318.164317 0.005117-477.245452-0.010233-13.512758-0.001023-26.224268 3.558036-38.659485 8.416693-16.778128 6.5553-31.327496 16.58063-43.399439 29.792537-16.213263 17.744129-27.582195 38.220487-30.815843 62.395072-1.3743 10.275018-2.139733 20.713764-2.145873 31.078833C62.154595 281.303037 62.067614 497.213481 62.329581 713.121879c0.032746 27.183106 9.492188 51.618635 26.488281 73.037457 11.326976 14.273075 24.998347 25.650193 41.259706 33.786501 12.385075 6.196119 25.399483 10.69662 39.33896 11.622712 9.883091 0.656963 19.803022 1.076518 29.706579 1.079588 187.763384 0.061398 375.525746 0.157589 563.28913-0.089028 24.954345-0.032746 47.605228-8.704243 67.724451-23.412223 16.71366-12.218276 29.553083-27.817556 38.280862-46.64946 7.130398-15.387455 11.475356-31.505551 11.480472-48.566112 0.036839-126.83778 0.020466-253.67556 0.020466-380.514363C879.917464 331.284381 879.917464 329.150788 879.917464 327.075523zM756.410546-66.496228c-55.970756-0.360204-104.70776 19.886933-144.363945 59.579957-43.708478 43.750433-63.052035 97.759511-59.132772 159.570275 3.243881 51.163263 23.757077 95.064123 59.913555 130.983193 39.673581 39.412638 88.522126 59.240219 144.247288 59.19417 57.161884-0.047072 106.808608-20.846794 146.854673-61.919235 38.763862-39.756469 58.230216-88.343047 58.009182-143.670144-0.225127-56.338123-20.47124-105.601106-60.872393-145.141658C861.359806-46.760744 813.214273-66.796056 756.410546-66.496228zM920.53658 137.890766c-0.666172 91.474364-72.718185 160.002111-155.833161 163.338089-99.077529 3.976568-168.44848-74.699306-171.118286-156.771533-3.172249-97.512894 74.615395-167.455873 157.451008-170.021302C847.017146-28.537707 920.680866 49.212074 920.53658 137.890766zM471.134267 444.670801c-81.934081 0-163.868161 0.085958-245.801219-0.101307-10.984169-0.025583-18.807345 8.411577-19.693528 19.077497-0.710175 8.556886 4.77577 18.619056 15.087627 20.556175 2.90619 0.545422 5.878894 1.042749 8.820899 1.043772 161.552419 0.050142 323.103816 0.046049 484.656235 0.039909 13.009292 0 22.611997-8.813736 22.470781-20.597107-0.130983-10.93812-8.583492-20.174482-20.274766-20.141736C634.646318 444.780295 552.890292 444.670801 471.134267 444.670801zM471.15371 608.217644c-81.942267 0-163.885558 0.004093-245.827825-0.004093-13.297864-0.001023-18.664082 8.883321-19.783579 19.382443-1.02433 9.608845 6.92676 18.805298 16.724917 20.132526 4.516874 0.611937 9.098215 1.062192 13.649881 1.064238 158.540829 0.053212 317.082682 0.053212 475.623511 0.028653 13.574157-0.002047 21.686928-5.749958 24.38334-15.517415 3.191692-11.558244-5.564739-25.252127-18.410302-25.213241C635.395378 608.340441 553.274032 608.217644 471.15371 608.217644zM348.649632 281.124981c-40.797172 0-81.597413 0.25685-122.391515-0.162706-11.663644-0.119727-20.99722 10.16757-20.697391 20.666692 0.338714 11.856026 9.191336 20.080338 20.702508 20.087501 81.595366 0.052189 163.190733 0.091074 244.785076-0.039909 12.368702-0.019443 20.343327-8.320503 20.656459-20.596084 0.254803-9.979282-8.871041-20.231787-20.665669-20.113083C430.248068 281.376715 389.447826 281.124981 348.649632 281.124981zM327.69846 158.197254c34.016745 0 68.034513-0.172939 102.048187 0.104377 10.417257 0.084934 21.008476-8.559956 20.775162-20.884656-0.196475-10.358929-9.381671-19.953448-20.635993-19.924795-67.854411 0.172939-135.708821 0.078795-203.564255 0.093121-9.761318 0.002047-19.465331 6.212492-20.722974 18.984377-0.836041 8.498558 4.133134 17.439184 14.843056 21.057595 1.775436 0.599657 3.821025 0.546446 5.741771 0.548492C260.022105 158.205441 293.859771 158.197254 327.69846 158.197254zM777.299295 137.887696c20.695345 0 40.625256-0.12996 60.552098 0.050142 11.197016 0.101307 18.832927-7.031137 20.563338-15.270798 2.429329-11.56336-3.400446-21.605064-14.105253-25.063839-1.467421-0.473791-3.163039-0.321318-4.753257-0.322341-27.603685-0.016373-55.208393-0.023536-82.812077-0.007163-11.729136 0.007163-20.058848 8.426927-20.060895 20.265556-0.010233 40.60479 0.042979 81.20958-0.038886 121.81437-0.01842 9.279341 5.363148 19.637246 19.531845 21.405519 8.120958 1.013073 18.283412-6.480598 20.87954-15.497972 0.429789-1.49198 0.234337-3.179412 0.234337-4.776793 0.011256-32.05609 0.008186-64.11218 0.008186-96.169293C777.299295 142.388197 777.299295 140.462335 777.299295 137.887696z"  horiz-adv-x="1024" />

    
    </font>
</defs>
</svg>
